<?xml version="1.0" encoding="UTF-8" standalone="no"?>
<!-- Created with Inkscape (http://www.inkscape.org/) -->

<svg
   xmlns:dc="http://purl.org/dc/elements/1.1/"
   xmlns:cc="http://creativecommons.org/ns#"
   xmlns:rdf="http://www.w3.org/1999/02/22-rdf-syntax-ns#"
   xmlns:svg="http://www.w3.org/2000/svg"
   xmlns="http://www.w3.org/2000/svg"
   xmlns:sodipodi="http://sodipodi.sourceforge.net/DTD/sodipodi-0.dtd"
   xmlns:inkscape="http://www.inkscape.org/namespaces/inkscape"
   id="svg3338"
   version="1.1"
   inkscape:version="0.91 r13725"
   width="43.75"
   height="43.92038"
   viewBox="0 0 43.75 43.92038"
   sodipodi:docname="icon_insta.svg">
  <metadata
     id="metadata3344">
    <rdf:RDF>
      <cc:Work
         rdf:about="">
        <dc:format>image/svg+xml</dc:format>
        <dc:type
           rdf:resource="http://purl.org/dc/dcmitype/StillImage" />
        <dc:title></dc:title>
      </cc:Work>
    </rdf:RDF>
  </metadata>
  <defs
     id="defs3342" />
  <sodipodi:namedview
     pagecolor="#ffffff"
     bordercolor="#666666"
     borderopacity="1"
     objecttolerance="10"
     gridtolerance="10"
     guidetolerance="10"
     inkscape:pageopacity="0"
     inkscape:pageshadow="2"
     inkscape:window-width="641"
     inkscape:window-height="480"
     id="namedview3340"
     showgrid="false"
     fit-margin-top="0"
     fit-margin-left="0"
     fit-margin-right="0"
     fit-margin-bottom="0"
     inkscape:zoom="5.3942857"
     inkscape:cx="22.083441"
     inkscape:cy="21.859998"
     inkscape:window-x="369"
     inkscape:window-y="214"
     inkscape:window-maximized="0"
     inkscape:current-layer="svg3338" />
  <path
     style="fill:#fefefe"
     d="M 9.9020997,40.907753 C 2.795896,36.118883 0,30.744913 0,21.874999 0,8.2081689 8.2081687,0 21.875,0 35.541831,0 43.75,8.2081689 43.75,21.874999 c 0,8.869914 -2.795895,14.243884 -9.9021,19.032754 -5.960581,4.016835 -17.985219,4.016835 -23.9458003,0 z M 32.941114,37.100003 C 44.891206,27.985223 42.974704,10.912261 29.271504,4.409668 16.773365,-1.5210874 1.017719,10.152936 2.87109,23.970848 4.80522,38.390865 21.622096,45.733439 32.941114,37.100003 Z M 10.594141,30.947075 C 10.193931,29.35251 10.037151,24.40897 10.245743,19.961433 l 0.379257,-8.086434 11.25,0 11.25,0 0,10.625 0,10.625 -10.901603,0.360642 C 11.726719,33.832889 11.294769,33.738598 10.594141,30.947075 Z m 5.627149,-9.697076 c 0.588708,0 1.354094,0.703125 1.700859,1.5625 0.376646,0.933426 0.670213,0.681798 0.729167,-0.625 0.06648,-1.473684 1.11842,-2.1875 3.223684,-2.1875 2.364444,0 3.16029,0.6845 3.270001,2.8125 0.109113,2.116462 0.286475,2.271138 0.716656,0.625 0.979256,-3.747236 2.714896,-2.402928 3.227758,2.5 0.273385,2.613542 0.519142,1.09264 0.555455,-3.4375 0.03582,-4.46875 -0.192118,-7.140625 -0.506527,-5.9375 C 28.441122,19.230498 25,19.490349 25,16.874999 c 0,-1.388889 -1.458334,-1.875 -5.625,-1.875 l -5.625,0 0.210129,7.8125 c 0.14107,5.244936 0.371274,6.271961 0.700456,3.125 0.269681,-2.578125 0.971998,-4.6875 1.560705,-4.6875 z"
     id="path3400"
     inkscape:connector-curvature="0" />
</svg>
