<?xml version="1.0" encoding="UTF-8" standalone="no"?>
<!-- Created with Inkscape (http://www.inkscape.org/) -->

<svg
   xmlns:dc="http://purl.org/dc/elements/1.1/"
   xmlns:cc="http://creativecommons.org/ns#"
   xmlns:rdf="http://www.w3.org/1999/02/22-rdf-syntax-ns#"
   xmlns:svg="http://www.w3.org/2000/svg"
   xmlns="http://www.w3.org/2000/svg"
   xmlns:sodipodi="http://sodipodi.sourceforge.net/DTD/sodipodi-0.dtd"
   xmlns:inkscape="http://www.inkscape.org/namespaces/inkscape"
   id="svg2"
   version="1.1"
   inkscape:version="0.91 r13725"
   width="43.75"
   height="43.92038"
   viewBox="0 0 43.75 43.92038"
   sodipodi:docname="icon_twit.svg">
  <metadata
     id="metadata8">
    <rdf:RDF>
      <cc:Work
         rdf:about="">
        <dc:format>image/svg+xml</dc:format>
        <dc:type
           rdf:resource="http://purl.org/dc/dcmitype/StillImage" />
        <dc:title></dc:title>
      </cc:Work>
    </rdf:RDF>
  </metadata>
  <defs
     id="defs6" />
  <sodipodi:namedview
     pagecolor="#ffffff"
     bordercolor="#666666"
     borderopacity="1"
     objecttolerance="10"
     gridtolerance="10"
     guidetolerance="10"
     inkscape:pageopacity="0"
     inkscape:pageshadow="2"
     inkscape:window-width="641"
     inkscape:window-height="480"
     id="namedview4"
     showgrid="false"
     fit-margin-top="0"
     fit-margin-left="0"
     fit-margin-right="0"
     fit-margin-bottom="0"
     inkscape:zoom="5.3942857"
     inkscape:cx="19.650424"
     inkscape:cy="21.674617"
     inkscape:window-x="695"
     inkscape:window-y="375"
     inkscape:window-maximized="0"
     inkscape:current-layer="svg2" />
  <path
     style="fill:#fefefe"
     d="M 9.9021005,40.907754 C 2.795895,36.118884 0,30.744914 0,21.875001 0,8.2081684 8.2081695,0 21.875,0 35.541831,0 43.75,8.2081684 43.75,21.875001 c 0,8.869913 -2.795895,14.243883 -9.9021,19.032753 -5.960581,4.016835 -17.985219,4.016835 -23.9457995,0 z M 32.941114,37.100004 C 44.891207,27.985224 42.974705,10.912263 29.271504,4.409668 16.773365,-1.5210874 1.017719,10.152935 2.87109,23.970849 4.80522,38.390867 21.622097,45.733441 32.941114,37.100004 Z M 11.562501,31.672149 c -2.4407735,-0.984872 -1.8334035,-2.922148 0.916145,-2.922148 2.471527,0 2.471527,-0.01268 0,-4.41302 C 8.5230135,17.294308 9.6719665,8.2112704 13.87747,13.278592 c 2.994735,3.608436 6.54998,4.154117 8.013501,1.229962 1.021056,-2.040101 2.505739,-2.643514 6.588553,-2.677755 2.898762,-0.02431 5.270476,0.432497 5.270476,1.015129 0,4.031784 -4.63018,13.922461 -7.744278,16.542801 -3.534907,2.974429 -10.142028,4.01899 -14.443222,2.28342 z"
     id="path3454"
     inkscape:connector-curvature="0" />
</svg>
