<?xml version="1.0" encoding="UTF-8" standalone="no"?>
<!-- Created with Inkscape (http://www.inkscape.org/) -->

<svg
   xmlns:dc="http://purl.org/dc/elements/1.1/"
   xmlns:cc="http://creativecommons.org/ns#"
   xmlns:rdf="http://www.w3.org/1999/02/22-rdf-syntax-ns#"
   xmlns:svg="http://www.w3.org/2000/svg"
   xmlns="http://www.w3.org/2000/svg"
   xmlns:sodipodi="http://sodipodi.sourceforge.net/DTD/sodipodi-0.dtd"
   xmlns:inkscape="http://www.inkscape.org/namespaces/inkscape"
   id="svg3338"
   version="1.1"
   inkscape:version="0.91 r13725"
   width="128.75"
   height="101.25"
   viewBox="0 0 128.75 101.25"
   sodipodi:docname="services-icon-3.svg">
  <metadata
     id="metadata3344">
    <rdf:RDF>
      <cc:Work
         rdf:about="">
        <dc:format>image/svg+xml</dc:format>
        <dc:type
           rdf:resource="http://purl.org/dc/dcmitype/StillImage" />
        <dc:title></dc:title>
      </cc:Work>
    </rdf:RDF>
  </metadata>
  <defs
     id="defs3342" />
  <sodipodi:namedview
     pagecolor="#ffffff"
     bordercolor="#666666"
     borderopacity="1"
     objecttolerance="10"
     gridtolerance="10"
     guidetolerance="10"
     inkscape:pageopacity="0"
     inkscape:pageshadow="2"
     inkscape:window-width="641"
     inkscape:window-height="480"
     id="namedview3340"
     showgrid="false"
     inkscape:zoom="2.3308642"
     inkscape:cx="64.412936"
     inkscape:cy="50.625"
     inkscape:window-x="893"
     inkscape:window-y="128"
     inkscape:window-maximized="0"
     inkscape:current-layer="svg3338" />
  <path
     style="fill:#78caca"
     d="m 1.8644067e-7,50.625 0,-50.6249995779661 64.37500081355932,0 64.374999,0 L 128.75,50.625 l 0,50.62501 -60.624999,0 c -39.583335,0 -60.6250008,-0.43385 -60.6250008,-1.25 0,-0.815795 20.6249998,-1.250005 59.3750008,-1.250005 l 59.374999,0 0,-48.125005 0,-48.1249998 -61.874999,0 -61.8750008,0 0,49.3749998 c 0,32.083334 -0.437764,49.37501 -1.25,49.37501 C 0.43724319,101.25001 1.8644068e-7,83.541666 1.8644068e-7,50.625 Z m 7.50000001355933,0 0,-43.1249998 56.8750008,0 56.874999,0 0,43.1249998 0,43.125005 -56.874999,0 -56.8750008,0 0,-43.125005 z M 118.75,50.625 118.75,10 64.375001,10 10,10 l 0,40.625 0,40.625005 54.375001,0 54.374999,0 0,-40.625005 z M 52.098671,83.071603 C 44.316743,80.21673 37.959754,74.279571 33.824599,66.004394 22.004085,42.349451 38.682661,15.503288 65.000001,15.823856 c 9.75867,0.118875 15.77222,2.532045 23.06778,9.25686 22.882279,21.09215 7.86239,60.163033 -23.00071,59.831207 -4.50564,-0.04844 -10.34142,-0.876587 -12.9684,-1.84032 z m 24.77633,-2.905779 c 15.61131,-7.116483 22.9304,-23.633911 17.90498,-40.40727 -1.95933,-6.539636 -9.73382,-15.158076 -16.72804,-18.54392 -8.09319,-3.917846 -19.42391,-3.711789 -27.74446,0.504554 -10.439882,5.290288 -16.416732,14.11416 -17.476481,25.801256 -1.344506,14.827465 8.204071,29.644997 21.711051,33.691321 6.26317,1.876274 17.02856,1.372089 22.33295,-1.045941 z M 46.250001,65.625 c 0,-1.683484 2.38421,-1.897219 17.8125,-1.596821 10.81045,0.210487 17.8125,0.838192 17.8125,1.596821 0,0.758629 -7.00205,1.386334 -17.8125,1.596821 -15.42829,0.300398 -17.8125,0.08666 -17.8125,-1.596821 z m -1.187222,-7.8125 c 0.03452,-0.515625 2.467672,-5.650212 5.406992,-11.410194 l 5.34422,-10.472695 1.61965,3.910195 c 0.89081,2.150607 2.01049,3.910194 2.48817,3.910194 0.47769,0 2.48162,-3.375 4.45319,-7.5 1.97157,-4.125 3.91444,-7.5 4.31749,-7.5 0.68446,0 15.05751,28.052856 15.05751,29.388778 0,0.336172 -8.71875,0.611222 -19.375,0.611222 -10.65625,0 -19.346751,-0.421875 -19.312222,-0.9375 z M 74.712321,45.625 C 71.814111,39.78125 69.109141,35 68.701261,35 c -0.40787,0 -2.35469,3.375 -4.32626,7.5 -1.97157,4.125 -3.94169,7.5 -4.37805,7.5 -0.43636,0 -1.65882,-1.827392 -2.71658,-4.060871 l -1.9232,-4.060871 -3.30358,6.519316 c -1.81698,3.585625 -3.30359,6.819266 -3.30359,7.185871 0,0.366605 7.02715,0.666555 15.61589,0.666555 l 15.61589,0 -5.26946,-10.625 z"
     id="path5017"
     inkscape:connector-curvature="0" />
</svg>
