<?xml version="1.0" encoding="UTF-8" standalone="no"?>
<!-- Created with Inkscape (http://www.inkscape.org/) -->

<svg
   xmlns:dc="http://purl.org/dc/elements/1.1/"
   xmlns:cc="http://creativecommons.org/ns#"
   xmlns:rdf="http://www.w3.org/1999/02/22-rdf-syntax-ns#"
   xmlns:svg="http://www.w3.org/2000/svg"
   xmlns="http://www.w3.org/2000/svg"
   xmlns:sodipodi="http://sodipodi.sourceforge.net/DTD/sodipodi-0.dtd"
   xmlns:inkscape="http://www.inkscape.org/namespaces/inkscape"
   id="svg2"
   version="1.1"
   inkscape:version="0.91 r13725"
   width="156.25"
   height="112.5"
   viewBox="0 0 156.25 112.5"
   sodipodi:docname="services-icon-2.svg">
  <metadata
     id="metadata8">
    <rdf:RDF>
      <cc:Work
         rdf:about="">
        <dc:format>image/svg+xml</dc:format>
        <dc:type
           rdf:resource="http://purl.org/dc/dcmitype/StillImage" />
        <dc:title></dc:title>
      </cc:Work>
    </rdf:RDF>
  </metadata>
  <defs
     id="defs6" />
  <sodipodi:namedview
     pagecolor="#ffffff"
     bordercolor="#666666"
     borderopacity="1"
     objecttolerance="10"
     gridtolerance="10"
     guidetolerance="10"
     inkscape:pageopacity="0"
     inkscape:pageshadow="2"
     inkscape:window-width="641"
     inkscape:window-height="480"
     id="namedview4"
     showgrid="false"
     inkscape:zoom="2.0977778"
     inkscape:cx="78.125"
     inkscape:cy="56.25"
     inkscape:window-x="979"
     inkscape:window-y="267"
     inkscape:window-maximized="0"
     inkscape:current-layer="svg2" />
  <path
     style="fill:#df6767"
     d="m 47.5,108.6017 0,-4.375 30.625,0 30.625,0 0,4.375 0,4.375 -30.625,0 -30.625,0 0,-4.375 z m 58.75,0 c 0,-1.61112 -3.95834,-1.875 -28.125,-1.875 -24.166666,0 -28.125,0.26388 -28.125,1.875 0,1.61111 3.958334,1.875 28.125,1.875 24.16666,0 28.125,-0.26389 28.125,-1.875 z M 1.6949154e-7,50.476694 l 0,-49.99999986 78.12499983050845,0 78.125,0 0,49.99999986 0,50.000006 -73.75,0 c -48.333334,0 -73.7499998,-0.4308 -73.7499998,-1.25 0,-0.81897 24.9999998,-1.250002 72.4999998,-1.250002 l 72.5,0 0,-47.500004 0,-47.4999999 -75.625,0 -75.6249998,0 0,48.7499999 c 0,31.666664 -0.438034,48.750006 -1.25,48.750006 C 0.43750017,100.4767 1.6949154e-7,82.976694 1.6949154e-7,50.476694 Z m 8.75000003050846,0 0,-41.2499997 69.3749998,0 69.375,0 0,41.2499997 0,41.250004 -69.375,0 -69.3749998,0 0,-41.250004 z M 145,81.87516 145,74.523626 134.0625,61.334248 C 128.04687,54.080089 122.84375,48.142204 122.5,48.138946 c -0.34375,-0.0032 -3.87892,3.755779 -7.85592,8.353413 -3.97701,4.597634 -10.87085,12.296835 -15.31964,17.109335 l -8.08872,8.75 -8.51749,-9.205824 -8.51748,-9.205822 -6.384364,6.69267 c -3.511397,3.680968 -6.768094,6.308936 -7.237101,5.839927 -0.875173,-0.875171 11.762855,-15.995951 13.369505,-15.995951 0.49095,0 4.41797,3.9375 8.7267,8.75 4.30874,4.8125 8.1868,8.75 8.61791,8.75 0.43111,0 7.47395,-7.59375 15.65075,-16.875 8.17681,-9.28125 15.17435,-16.875 15.5501,-16.875 0.37575,0 5.38502,5.625 11.1317,12.5 5.74668,6.875 10.65676,12.5 10.91128,12.5 0.25452,0 0.46277,-12.9375 0.46277,-28.75 l 0,-28.75 -66.875,0 -66.875,0 0,38.75 0,38.750004 66.875,0 66.875,0 0,-7.351538 z M 19.583334,79.64336 C 19.125,79.185028 18.75,76.935028 18.75,74.64336 l 0,-4.166666 15.625,0 15.625,0 0,5 0,5 -14.791666,0 c -8.135418,0 -15.166668,-0.375 -15.625,-0.833334 z M 47.5,74.851694 c 0,-1.547619 -2.291666,-1.875 -13.125,-1.875 -10.833334,0 -13.125,0.327381 -13.125,1.875 0,1.547619 2.291666,1.875 13.125,1.875 10.833334,0 13.125,-0.327381 13.125,-1.875 z m -26.875,-20.625 c 0.448045,-0.724952 7.304647,-1.25 16.323771,-1.25 9.534153,0 15.551229,0.48365 15.551229,1.25 0,0.76952 -6.27459,1.25 -16.323771,1.25 -10.564209,0 -16.051193,-0.441041 -15.551229,-1.25 z m -0.625,-7.5 c 0,-0.796296 10.208334,-1.25 28.125,-1.25 17.916666,0 28.125,0.453704 28.125,1.25 0,0.796296 -10.208334,1.25 -28.125,1.25 -17.916666,0 -28.125,-0.453704 -28.125,-1.25 z m 3.218287,-17.396919 c -2.934246,-3.242305 -2.054688,-7.746567 1.950174,-9.98695 2.951143,-1.650914 3.63324,-1.61978 6.5625,0.299545 C 33.75674,20.969711 35,22.92789 35,24.791224 c 0,6.330686 -7.533522,9.232749 -11.781713,4.538551 z m 8.522734,-2.988792 c 1.103855,-1.803133 0.906268,-2.615599 -0.976196,-4.014067 -4.344949,-3.227827 -9.262575,1.652028 -5.478341,5.436262 2.005612,2.005612 4.722565,1.406958 6.454537,-1.422195 z M 80,20.476694 c 0,-0.6875 2.8125,-1.25 6.25,-1.25 3.4375,0 6.25,0.5625 6.25,1.25 0,0.6875 -2.8125,1.25 -6.25,1.25 -3.4375,0 -6.25,-0.5625 -6.25,-1.25 z m 21.25,0 c 0,-0.6875 2.8125,-1.25 6.25,-1.25 3.4375,0 6.25,0.5625 6.25,1.25 0,0.6875 -2.8125,1.25 -6.25,1.25 -3.4375,0 -6.25,-0.5625 -6.25,-1.25 z m 21.25,0 c 0,-0.6875 2.8125,-1.25 6.25,-1.25 3.4375,0 6.25,0.5625 6.25,1.25 0,0.6875 -2.8125,1.25 -6.25,1.25 -3.4375,0 -6.25,-0.5625 -6.25,-1.25 z"
     id="path3384"
     inkscape:connector-curvature="0" />
</svg>
