<?xml version="1.0" encoding="UTF-8" standalone="no"?>
<!-- Created with Inkscape (http://www.inkscape.org/) -->

<svg
   xmlns:dc="http://purl.org/dc/elements/1.1/"
   xmlns:cc="http://creativecommons.org/ns#"
   xmlns:rdf="http://www.w3.org/1999/02/22-rdf-syntax-ns#"
   xmlns:svg="http://www.w3.org/2000/svg"
   xmlns="http://www.w3.org/2000/svg"
   xmlns:sodipodi="http://sodipodi.sourceforge.net/DTD/sodipodi-0.dtd"
   xmlns:inkscape="http://www.inkscape.org/namespaces/inkscape"
   id="svg2"
   version="1.1"
   inkscape:version="0.91 r13725"
   width="128.75"
   height="101.25"
   viewBox="0 0 128.75 101.25"
   sodipodi:docname="services-icon-4.svg">
  <metadata
     id="metadata8">
    <rdf:RDF>
      <cc:Work
         rdf:about="">
        <dc:format>image/svg+xml</dc:format>
        <dc:type
           rdf:resource="http://purl.org/dc/dcmitype/StillImage" />
        <dc:title></dc:title>
      </cc:Work>
    </rdf:RDF>
  </metadata>
  <defs
     id="defs6" />
  <sodipodi:namedview
     pagecolor="#ffffff"
     bordercolor="#666666"
     borderopacity="1"
     objecttolerance="10"
     gridtolerance="10"
     guidetolerance="10"
     inkscape:pageopacity="0"
     inkscape:pageshadow="2"
     inkscape:window-width="641"
     inkscape:window-height="480"
     id="namedview4"
     showgrid="false"
     inkscape:zoom="2.3308642"
     inkscape:cx="64.375"
     inkscape:cy="50.625"
     inkscape:window-x="1114"
     inkscape:window-y="102"
     inkscape:window-maximized="0"
     inkscape:current-layer="svg2" />
  <path
     style="fill:#df6565"
     d="m 0.42902541,51.054025 0,-50.62500003 64.37499959,0 64.375005,0 0,50.62500003 0,50.624995 -60.625005,0 c -39.583334,0 -60.6249996,-0.43385 -60.6249996,-1.25 0,-0.815788 20.6249996,-1.249998 59.3749996,-1.249998 l 59.375005,0 0,-48.124997 0,-48.1249996 -61.875005,0 -61.8749996,0 0,49.3749996 c 0,32.083333 -0.4377638,49.374995 -1.25,49.374995 -0.81275719,0 -1.24999999,-17.708329 -1.24999999,-50.624995 z M 83.26399,92.929022 c -2.04852,-2.392494 -3.687422,-2.499997 -38.112766,-2.499997 -23.148133,0 -35.9721987,-0.445624 -35.9721987,-1.25 0,-0.804983 13.0804207,-1.25 36.7412637,-1.25 31.505789,0 36.843791,-0.26718 37.460769,-1.875 0.395728,-1.03125 2.074533,-1.875 3.73068,-1.875 1.656147,0 3.711426,0.84375 4.567287,1.875 1.208688,1.45638 4.591823,1.875 15.153055,1.875 8.2313,0 13.59695,0.493277 13.59695,1.25 0,0.752778 -5.14376,1.25 -12.93127,1.25 -11.343776,0 -13.209015,0.306908 -15.193735,2.499997 -1.244357,1.375 -3.305794,2.5 -4.580969,2.5 -1.275175,0 -3.281755,-1.125 -4.459066,-2.5 z m 6.944919,-2.91986 c 0.515176,-2.656405 -3.421418,-4.278182 -4.834536,-1.991707 -1.217007,1.969157 0.977545,5.228637 3.054758,4.537117 0.756192,-0.25174 1.557092,-1.397177 1.779778,-2.54541 z M 7.9290254,44.179025 l 0,-36.2499996 56.8749996,0 56.875005,0 0,36.2499996 0,36.25 -56.875005,0 -56.8749996,0 0,-36.25 z m 111.2500046,0.625 0,-33.125 -54.375005,0 -54.375,0 0,33.125 0,33.125 54.375,0 54.375005,0 0,-33.125 z m -73.750005,0 c 0,-13.40625 0.330963,-24.375 0.735473,-24.375 0.40451,0 11.432778,5.428418 24.507262,12.063153 L 94.443549,44.555332 70.248788,56.852648 C 56.941668,63.616171 45.9134,69.156502 45.741525,69.164493 c -0.171875,0.008 -0.3125,-10.954218 -0.3125,-24.360468 z M 87.75044,44.676028 C 87.995969,44.484536 79.136594,39.79106 68.06294,34.246081 l -20.133915,-10.08178 0,20.576874 0,20.576873 19.6875,-10.146926 C 78.44465,49.590313 87.504913,44.867521 87.75044,44.676028 Z"
     id="path5057"
     inkscape:connector-curvature="0" />
</svg>
