<?xml version="1.0" encoding="UTF-8" standalone="no"?>
<!-- Created with Inkscape (http://www.inkscape.org/) -->

<svg
   xmlns:dc="http://purl.org/dc/elements/1.1/"
   xmlns:cc="http://creativecommons.org/ns#"
   xmlns:rdf="http://www.w3.org/1999/02/22-rdf-syntax-ns#"
   xmlns:svg="http://www.w3.org/2000/svg"
   xmlns="http://www.w3.org/2000/svg"
   xmlns:sodipodi="http://sodipodi.sourceforge.net/DTD/sodipodi-0.dtd"
   xmlns:inkscape="http://www.inkscape.org/namespaces/inkscape"
   id="svg3338"
   version="1.1"
   inkscape:version="0.91 r13725"
   width="128.75"
   height="101.25"
   viewBox="0 0 128.75 101.25"
   sodipodi:docname="services-icon-1.svg">
  <metadata
     id="metadata3344">
    <rdf:RDF>
      <cc:Work
         rdf:about="">
        <dc:format>image/svg+xml</dc:format>
        <dc:type
           rdf:resource="http://purl.org/dc/dcmitype/StillImage" />
        <dc:title></dc:title>
      </cc:Work>
    </rdf:RDF>
  </metadata>
  <defs
     id="defs3342" />
  <sodipodi:namedview
     pagecolor="#ffffff"
     bordercolor="#666666"
     borderopacity="1"
     objecttolerance="10"
     gridtolerance="10"
     guidetolerance="10"
     inkscape:pageopacity="0"
     inkscape:pageshadow="2"
     inkscape:window-width="641"
     inkscape:window-height="480"
     id="namedview3340"
     showgrid="false"
     inkscape:zoom="2.3308642"
     inkscape:cx="64.375"
     inkscape:cy="50.625"
     inkscape:window-x="939"
     inkscape:window-y="210"
     inkscape:window-maximized="0"
     inkscape:current-layer="svg3338" />
  <path
     style="fill:#78caca"
     d="m -1.1864408e-7,51.054025 0,-50.62499981 64.37500011864408,0 64.37499,0 0,50.62499981 0,50.625005 -60.62499,0 c -39.583333,0 -60.6250001,-0.43385 -60.6250001,-1.25 0,-0.815793 20.6250001,-1.250003 59.3750001,-1.250003 l 59.37499,0 0,-48.125002 0,-48.1249998 -61.87499,0 -61.8750001,0 0,49.3749998 c 0,32.083334 -0.437764,49.375005 -1.25,49.375005 C 0.43724288,101.67903 -1.1864406e-7,83.970691 -1.1864406e-7,51.054025 Z m 7.50000001864408,0 0,-43.1249998 56.8750001,0 56.87499,0 0,43.1249998 0,43.125 -56.87499,0 -56.8750001,0 0,-43.125 z m 9.4536371,36.78744 C 22.438702,82.1081 27.530604,79.375776 37.40175,76.86897 L 46.303392,74.608372 36.6723,63.768699 C 31.3752,57.806879 26.639867,52.929025 26.149335,52.929025 c -0.49053,0 -4.324802,3.87216 -8.520603,8.604799 l -7.6287321,8.604798 0,10.770202 c 0,12.213376 0.9732801,13.183717 6.9536371,6.932641 z m 56.796366,2.71705 c 0,-2.052219 -8.469776,-8.59182 -13.33029,-10.292454 -2.637091,-0.922686 -9.100509,-1.636955 -14.363148,-1.587265 -10.57277,0.09983 -20.346921,3.797591 -26.031062,9.848083 l -2.961288,3.152146 28.342893,0 c 15.878322,0 28.342895,-0.492775 28.342895,-1.12051 z m 18.75,-6.295255 c 0,-6.285276 -0.37614,-7.535148 -2.4674,-8.198886 -4.07037,-1.291888 -7.5326,-6.788179 -7.5326,-11.958015 0,-9.726215 9.76421,-15.704999 17.17328,-10.51548 3.157427,2.211548 5.317227,8.824235 4.418187,13.52724 -0.61512,3.217767 -5.930587,9.560906 -8.011927,9.560906 -0.59375,0 -1.07954,3.375 -1.07954,7.5 l 0,7.5 11.874987,0 11.875,0 -0.0369,-12.8125 -0.0369,-12.8125 -14.02564,-17.118431 c -7.714097,-9.415138 -14.413897,-17.149513 -14.888437,-17.1875 -0.47454,-0.03799 -9.41582,9.603356 -19.869493,21.42521 -20.801058,23.523498 -20.139318,21.665862 -8.806732,24.722231 3.782504,1.02013 7.240266,3.325276 11.25,7.499905 5.550985,5.779261 6.084585,6.032369 12.976535,6.15534 l 7.1875,0.128245 0,-7.415765 z m 5.85693,-12.802128 c 5.794897,-5.444031 2.652787,-17.282107 -4.58709,-17.282107 -7.78562,0 -11.52599,11.107492 -5.70166,16.931819 3.78398,3.78398 6.53409,3.87761 10.28875,0.350288 z M 65.625,54.134454 C 74.562503,43.889546 83.597493,33.479215 85.702753,31.000384 l 3.82775,-4.506964 13.365967,16.272879 c 7.35129,8.950083 13.92567,16.618791 14.60975,17.041573 0.80924,0.50014 1.24377,-7.991205 1.24377,-24.305076 l 0,-25.073771 -54.37499,0 -54.3750001,0 0,27.754604 0,27.754603 7.9877771,-8.692103 7.987776,-8.692104 2.976874,2.76232 c 1.637281,1.519276 6.620907,6.988677 11.074723,12.154225 4.453818,5.165547 8.3791,9.369197 8.72285,9.341446 0.34375,-0.02775 7.9375,-8.432655 16.875,-18.677562 z M 18.75,29.179025 c 0,-0.76087 5.625,-1.25 14.375,-1.25 8.75,0 14.375,0.48913 14.375,1.25 0,0.76087 -5.625,1.25 -14.375,1.25 -8.75,0 -14.375,-0.48913 -14.375,-1.25 z m -0.614636,-6.233233 c -0.436601,-0.706433 -0.03846,-1.574282 0.884751,-1.928552 3.170167,-1.216508 49.733875,-0.01175 49.733697,1.286785 -2.4e-4,1.738271 -49.552492,2.366521 -50.618448,0.641767 z"
     id="path3348"
     inkscape:connector-curvature="0" />
</svg>
