<?xml version="1.0" encoding="UTF-8" standalone="no"?>
<!-- Created with Inkscape (http://www.inkscape.org/) -->

<svg
   xmlns:dc="http://purl.org/dc/elements/1.1/"
   xmlns:cc="http://creativecommons.org/ns#"
   xmlns:rdf="http://www.w3.org/1999/02/22-rdf-syntax-ns#"
   xmlns:svg="http://www.w3.org/2000/svg"
   xmlns="http://www.w3.org/2000/svg"
   xmlns:sodipodi="http://sodipodi.sourceforge.net/DTD/sodipodi-0.dtd"
   xmlns:inkscape="http://www.inkscape.org/namespaces/inkscape"
   id="svg3348"
   version="1.1"
   inkscape:version="0.91 r13725"
   width="473.43362"
   height="557.14154"
   viewBox="0 0 473.43362 557.14154"
   sodipodi:docname="icon-3-present.svg">
  <metadata
     id="metadata3354">
    <rdf:RDF>
      <cc:Work
         rdf:about="">
        <dc:format>image/svg+xml</dc:format>
        <dc:type
           rdf:resource="http://purl.org/dc/dcmitype/StillImage" />
        <dc:title></dc:title>
      </cc:Work>
    </rdf:RDF>
  </metadata>
  <defs
     id="defs3352" />
  <sodipodi:namedview
     pagecolor="#ffffff"
     bordercolor="#666666"
     borderopacity="1"
     objecttolerance="10"
     gridtolerance="10"
     guidetolerance="10"
     inkscape:pageopacity="0"
     inkscape:pageshadow="2"
     inkscape:window-width="641"
     inkscape:window-height="480"
     id="namedview3350"
     showgrid="false"
     fit-margin-top="0"
     fit-margin-left="0"
     fit-margin-right="0"
     fit-margin-bottom="0"
     inkscape:zoom="0.42237136"
     inkscape:cx="236.72102"
     inkscape:cy="281.38413"
     inkscape:window-x="0"
     inkscape:window-y="0"
     inkscape:window-maximized="0"
     inkscape:current-layer="svg3348" />
  <path
     style="fill:#040404"
     d="m 32.971013,556.32422 c -1.375,-0.56602 -3.625,-2.27946 -5,-3.80765 -2.46015,-2.73421 -2.50526,-4.77618 -2.83011,-128.10583 l -0.33011,-125.32733 -8.85861,-0.63384 C 8.5098826,297.91708 6.5641726,297.28648 3.7822926,294.50539 l -3.31128002,-3.31036 -0.34882,-57.46434 c -0.3808,-62.73264 -0.29148,-63.61099 6.74007002,-66.28438 1.89402,-0.7201 38.3172804,-1.2038 91.5026304,-1.21515 l 88.356127,-0.0189 -15.625,-8.21977 C 102.26033,121.78048 70.166313,86.450332 76.146893,53.469426 78.334023,41.408128 83.069323,33.018051 93.625823,22.5 108.87799,7.3033762 123.88027,0 139.84437,0 c 36.64267,0 67.03532,40.590591 89.85127,120.00001 2.66671,9.28125 5.25123,18.74335 5.7434,21.02689 0.49219,2.28352 1.09396,3.9528 1.33728,3.70947 0.24331,-0.24331 1.64868,-6.04916 3.12301,-12.90187 3.47734,-16.16269 13.2573,-45.745885 19.74364,-59.72211 9.95115,-21.441923 24.56089,-38.976056 37.99351,-45.598606 17.54641,-8.650725 37.38033,-5.541854 56.86694,8.913622 24.9234,18.488567 26.79174,43.859823 5.09454,69.181574 -13.93788,16.26622 -40.09342,34.90799 -72.55533,51.71219 l -19.07161,9.87259 97.73112,0.0281 c 61.64097,0.0178 98.9375,0.48679 100.99797,1.27018 6.78486,2.5796 7.00187,4.77275 6.62001,66.90293 l -0.3491,56.80007 -3.31128,3.31035 c -2.78143,2.78064 -4.72785,3.41169 -12.16418,3.94376 l -8.85292,0.63343 -0.33581,125.4306 -0.33581,125.4306 -3.46581,3.4656 -3.46582,3.46561 -202.78418,0.23918 c -111.5313,0.13156 -203.909197,-0.22392 -205.284197,-0.78995 z m 156.568627,-144.76171 0.31863,-122.8125 -71.25612,0 -71.256137,0 0,122.29166 c 0,67.26043 0.37964,122.67131 0.84365,123.13532 0.464,0.464 32.38588,0.69837 70.937497,0.52083 l 70.09386,-0.32281 0.31862,-122.8125 z m 74.05638,-49.6875 0,-173.125 -25.625,0 -25.625,0 0,173.125 0,173.125 25.625,0 25.625,0 0,-173.125 z m 162.13225,52.5 c 0.14148,-66 -0.01,-121.26563 -0.33633,-122.8125 l -0.59354,-2.8125 -69.35119,0 -69.35119,0 0,123.1355 0,123.13549 69.6875,-0.32299 69.6875,-0.323 0.25725,-120 z m -236.17669,-187.1875 0.33056,-38.4375 -83.76805,0 -83.768077,0 0,38.75886 0,38.75887 83.437507,-0.32137 83.4375,-0.32136 0.33056,-38.4375 z m 261.54444,0.3125 0,-38.75 -82.5,0 -82.5,0 0,38.75 0,38.75 82.5,0 82.5,0 0,-38.75 z M 210.64671,136.05018 C 198.21633,88.8408 180.88673,51.38318 163.4781,34.096105 151.22896,21.932499 139.31113,19.48714 125.54266,26.312321 c -7.78777,3.860479 -19.83663,14.900001 -23.98133,21.972408 -14.706507,25.094746 19.79239,60.442741 93.90551,96.216781 10.31022,4.97668 18.93138,8.86296 19.15817,8.63617 0.22678,-0.22677 -1.56345,-7.91614 -3.9783,-17.0875 z m 70.91067,-2.29353 c 44.28679,-23.80344 70.63834,-47.220478 70.76119,-62.881225 0.0589,-7.500765 -8.08696,-16.716646 -20.24017,-22.899022 -21.99466,-11.188759 -40.08582,3.378377 -57.16385,46.028758 -6.90289,17.239139 -15.39267,49.747109 -12.9909,49.743099 0.57606,-9.6e-4 9.41123,-4.49719 19.63373,-9.99161 z"
     id="path3374"
     inkscape:connector-curvature="0" />
</svg>
