<?xml version="1.0" encoding="UTF-8" standalone="no"?>
<!-- Created with Inkscape (http://www.inkscape.org/) -->

<svg
   xmlns:dc="http://purl.org/dc/elements/1.1/"
   xmlns:cc="http://creativecommons.org/ns#"
   xmlns:rdf="http://www.w3.org/1999/02/22-rdf-syntax-ns#"
   xmlns:svg="http://www.w3.org/2000/svg"
   xmlns="http://www.w3.org/2000/svg"
   xmlns:sodipodi="http://sodipodi.sourceforge.net/DTD/sodipodi-0.dtd"
   xmlns:inkscape="http://www.inkscape.org/namespaces/inkscape"
   id="svg2"
   version="1.1"
   inkscape:version="0.91 r13725"
   width="557.53186"
   height="532.62195"
   viewBox="0 0 557.53186 532.62195"
   sodipodi:docname="icon-1-home.svg">
  <metadata
     id="metadata8">
    <rdf:RDF>
      <cc:Work
         rdf:about="">
        <dc:format>image/svg+xml</dc:format>
        <dc:type
           rdf:resource="http://purl.org/dc/dcmitype/StillImage" />
        <dc:title></dc:title>
      </cc:Work>
    </rdf:RDF>
  </metadata>
  <defs
     id="defs6" />
  <sodipodi:namedview
     pagecolor="#ffffff"
     bordercolor="#666666"
     borderopacity="1"
     objecttolerance="10"
     gridtolerance="10"
     guidetolerance="10"
     inkscape:pageopacity="0"
     inkscape:pageshadow="2"
     inkscape:window-width="641"
     inkscape:window-height="480"
     id="namedview4"
     showgrid="false"
     fit-margin-top="0"
     fit-margin-left="0"
     fit-margin-right="0"
     fit-margin-bottom="0"
     inkscape:zoom="0.4411215"
     inkscape:cx="284.92584"
     inkscape:cy="263.98305"
     inkscape:window-x="0"
     inkscape:window-y="0"
     inkscape:window-maximized="0"
     inkscape:current-layer="svg2" />
  <path
     style="fill:#050505"
     d="m 38.75,521.99695 0,-10.625 18.75,0 18.75,0 0,-141.55294 0,-141.55292 -30.32188,30.30292 C 29.25108,275.23562 15.02874,288.87195 14.32292,288.87195 12.69446,288.87195 0,276.08437 0,274.44397 0,273.77058 60.04687,213.2253 133.4375,139.89891 272.78785,0.67052389 269.31916,3.9095395 279.10265,3.8789231 285.94506,3.8575101 291.95801,9.0423458 335.3125,52.347389 L 380,96.983933 380,48.552941 380,0.121952 383.125,0.060976 C 384.84375,0.027439 404.53125,0 426.875,0 c 22.34375,0 43.71875,0.027439 47.5,0.060976 l 6.875,0.060976 0,99.055061 0,99.055047 38.14092,38.15581 38.14093,38.15582 -7.53079,7.45221 -7.53079,7.45221 -30.61014,-30.59101 -30.61013,-30.59101 0,141.55292 0,141.55294 18.75,0 18.75,0 0,10.625 0,10.625 -240,0 -240,0 0,-10.625 z M 460,359.18766 460,207.00337 369.69073,116.68766 c -49.6701,-49.673638 -90.96692,-90.315708 -91.77072,-90.315708 -0.80381,0 -41.72714,40.633156 -90.94074,90.295898 L 97.5,206.96375 l 0,152.2041 0,152.2041 181.25,0 181.25,0 0,-152.18429 z m -240,34.68429 0,-91.27473 58.4375,0.32487 58.4375,0.32486 0,90.625 0,90.625 -58.4375,0.32486 -58.4375,0.32487 0,-91.27473 z m 95.94808,0.3125 0.32308,-69.0625 -37.51058,0 -37.51058,0 0,69.26747 0,69.26747 37.1875,-0.20497 37.1875,-0.20497 0.32308,-69.0625 z M 123.75,362.62195 l 0,-16.25 10.625,0 10.625,0 0,16.25 0,16.25 -10.625,0 -10.625,0 0,-16.25 z m 48.75,0 0,-16.25 10.625,0 10.625,0 0,16.25 0,16.25 -10.625,0 -10.625,0 0,-16.25 z m 191.25,0 0,-16.25 10.625,0 10.625,0 0,16.25 0,16.25 -10.625,0 -10.625,0 0,-16.25 z m 48.75,0 0,-16.25 10.625,0 10.625,0 0,16.25 0,16.25 -10.625,0 -10.625,0 0,-16.25 z m -288.75,-48.125 0,-15.625 10.625,0 10.625,0 0,15.625 0,15.625 -10.625,0 -10.625,0 0,-15.625 z m 48.75,0 0,-15.625 10.625,0 10.625,0 0,15.625 0,15.625 -10.625,0 -10.625,0 0,-15.625 z m 191.52515,-0.3125 0.34985,-15.9375 10.3125,-0.36305 10.3125,-0.36305 0,16.30055 0,16.30055 -10.66235,0 -10.66234,0 0.34984,-15.9375 z M 412.5,313.8214 l 0,-16.30055 10.3125,0.36305 10.3125,0.36305 0.34985,15.9375 0.34983,15.9375 -10.66233,0 -10.66235,0 0,-16.30055 z M 268.75,259.96499 c -16.28227,-2.69905 -33.82612,-15.10554 -41.52137,-29.36269 -9.60017,-17.78644 -9.48987,-40.29449 0.28117,-57.37249 4.33567,-7.57796 16.2072,-19.26639 23.17093,-22.81357 12.05658,-6.14138 28.65823,-8.22054 41.67594,-5.21943 28.60869,6.59548 48.8323,36.89358 43.94935,65.84295 -5.44062,32.25575 -35.74021,54.19921 -67.55602,48.92523 z m 22.83298,-23.06192 c 3.17809,-1.08288 8.3092,-4.19663 11.40249,-6.91945 19.23635,-16.93251 15.73264,-48.13735 -6.78072,-60.39066 -8.692,-4.73077 -20.50988,-5.7331 -30.0877,-2.55185 -9.67138,3.21231 -19.81822,13.63871 -22.90363,23.53468 -9.27077,29.7345 18.63256,56.4597 48.36956,46.32728 z M 460,98.871953 l 0,-77.500001 -29.375,0 -29.375,0 0,48.427731 0,48.427727 29.05252,29.07226 c 15.97889,15.98976 29.19764,29.07228 29.375,29.07228 0.17736,0 0.32248,-34.875 0.32248,-77.499997 z"
     id="path3435"
     inkscape:connector-curvature="0" />
</svg>
