<?xml version="1.0" encoding="UTF-8" standalone="no"?>
<!-- Created with Inkscape (http://www.inkscape.org/) -->

<svg
   xmlns:dc="http://purl.org/dc/elements/1.1/"
   xmlns:cc="http://creativecommons.org/ns#"
   xmlns:rdf="http://www.w3.org/1999/02/22-rdf-syntax-ns#"
   xmlns:svg="http://www.w3.org/2000/svg"
   xmlns="http://www.w3.org/2000/svg"
   xmlns:sodipodi="http://sodipodi.sourceforge.net/DTD/sodipodi-0.dtd"
   xmlns:inkscape="http://www.inkscape.org/namespaces/inkscape"
   id="svg3338"
   version="1.1"
   inkscape:version="0.91 r13725"
   width="554.97839"
   height="516.84998"
   viewBox="0 0 554.97839 516.84998"
   sodipodi:docname="icon-2-burger.svg">
  <metadata
     id="metadata3344">
    <rdf:RDF>
      <cc:Work
         rdf:about="">
        <dc:format>image/svg+xml</dc:format>
        <dc:type
           rdf:resource="http://purl.org/dc/dcmitype/StillImage" />
        <dc:title></dc:title>
      </cc:Work>
    </rdf:RDF>
  </metadata>
  <defs
     id="defs3342" />
  <sodipodi:namedview
     pagecolor="#ffffff"
     bordercolor="#666666"
     borderopacity="1"
     objecttolerance="10"
     gridtolerance="10"
     guidetolerance="10"
     inkscape:pageopacity="0"
     inkscape:pageshadow="2"
     inkscape:window-width="641"
     inkscape:window-height="480"
     id="namedview3340"
     showgrid="false"
     fit-margin-top="0"
     fit-margin-left="0"
     fit-margin-right="0"
     fit-margin-bottom="0"
     inkscape:zoom="0.45384615"
     inkscape:cx="239.00213"
     inkscape:cy="256.65456"
     inkscape:window-x="0"
     inkscape:window-y="0"
     inkscape:window-maximized="0"
     inkscape:current-layer="svg3338" />
  <path
     style="fill:#000000"
     d="m 78.916881,514.762 c -18.8693,-4.56779 -37.7987,-19.64839 -46.2703,-36.86229 -5.0748,-10.31192 -8.2312,-23.1906 -8.2642,-33.71911 -0.021,-6.68287 -0.1702,-6.99021 -4.0842,-8.40913 -6.631,-2.40389 -13.0466999,-8.60835 -16.7954999,-16.24249 -3.43960002,-7.00449 -3.51660002,-7.62928 -3.50150002,-28.41199 0.014,-18.95508 0.3003,-21.86955 2.65340002,-26.98674 3.1753,-6.90525 9.5682999,-13.55096 16.2018999,-16.84234 4.7778,-2.37058 10.1551,-2.42092 258.629199,-2.42092 248.4742,0 253.8515,0.0504 258.6293,2.42092 6.6289,3.28902 13.0232,9.93305 16.2094,16.84234 2.3639,5.12634 2.6463,7.99778 2.6534,26.98674 0.01,20.80755 -0.066,21.40009 -3.5316,28.45816 -3.6273,7.38685 -12.0465,15.23196 -17.9318,16.70908 -2.6054,0.65393 -2.9059,1.45306 -2.9254,7.78077 -0.1023,33.25566 -23.5071,63.30641 -55.1072,70.75519 -11.6372,2.74314 -385.219199,2.68832 -396.564899,-0.0581 z M 472.04508,492.4518 c 18.1318,-5.50292 31.2626,-20.18672 34.7053,-38.81014 0.7482,-4.04735 1.3603,-8.94301 1.3603,-10.87924 l 0,-3.52043 -230.625,0 -230.624999,0 0,4.20439 c 0,21.91716 13.8517,41.48074 34.3161,48.46663 5.8578,1.99965 19.851399,2.15897 195.683899,2.22779 159.5688,0.0625 190.2894,-0.20337 195.1844,-1.689 z m 56.9748,-79.80072 3.4658,-3.4659 0,-18.20483 0,-18.20482 -3.5072,-3.01676 -3.5072,-3.01678 -247.9856,0 -247.985599,0 -3.5072,3.01677 -3.5072,3.01677 0,18.13252 c 0,17.36494 0.1257,18.26626 2.9679,21.29165 1.6323,1.73751 4.1635,3.39651 5.625,3.68665 1.4614,0.29015 113.316199,0.46074 248.566299,0.37909 l 245.9092,-0.14845 3.4658,-3.46591 z m -128.9151,-95.32645 c -1.997,-1.03681 -11.4821,-9.52214 -21.078,-18.8563 l -17.447,-16.97118 -5.797,5.41905 c -3.1884,2.98049 -11.1408,10.60055 -17.6721,16.93349 -13.2856,12.88219 -16.9351,14.92196 -22.4819,12.56551 -2.0043,-0.85151 -11.8487,-9.34876 -21.8765,-18.88276 l -18.2322,-17.33455 -18.0255,17.65738 c -9.914,9.71156 -19.4951,18.21615 -21.2914,18.8991 -1.7963,0.68293 -4.7604,0.86662 -6.587,0.40818 -1.9101,-0.4794 -11.187,-8.5487 -21.836,-18.99352 l -18.515,-18.16 -12.1397,11.86117 c -23.1781,22.64623 -25.931,24.87179 -30.7652,24.87179 -3.9517,0 -6.3477,-1.8458 -23.5123,-18.11285 -10.5118,-9.96208 -19.4221,-18.11833 -19.8007,-18.125 -0.3786,-0.007 -9.253999,8.1441 -19.722999,18.11285 -17.1016,16.28432 -19.4808,18.125 -23.4277,18.125 -5.1215,0 -7.5829,-2.05417 -35.8484,-29.91815 C 7.0295811,270.04691 5.6106811,268.29944 5.6106811,264.11558 c 0,-6.04196 4.9187999,-11.12359 10.7671999,-11.12359 3.6646,0 6.5917,2.27885 23.892,18.6004 l 19.7158,18.6004 18.3985,-17.94179 c 10.1191,-9.86797 19.8223,-18.29914 21.562499,-18.73591 1.7402,-0.43676 4.5914,-0.43588 6.3359,0.002 1.7446,0.43786 11.4354,8.8684 21.5352,18.73453 l 18.3632,17.93842 19.0278,-17.97401 c 25.5741,-24.15773 22.8168,-24.16949 48.171,0.20531 l 18.9097,18.17934 6.3481,-5.97869 c 3.4915,-3.28827 11.6919,-11.15894 18.2231,-17.49039 13.295,-12.88818 16.9283,-14.91592 22.5102,-12.5628 2.0199,0.85152 11.8654,9.3462 21.8788,18.87709 l 18.2064,17.32886 17.4112,-17.03166 c 9.5761,-9.36741 18.8749,-17.5882 20.664,-18.26841 1.7891,-0.68022 4.7608,-0.86015 6.6037,-0.39986 1.9477,0.48647 11.0665,8.39482 21.778,18.8872 l 18.4273,18.05031 18.5214,-17.57531 c 10.1868,-9.66643 20.0352,-18.15083 21.8853,-18.85422 5.1337,-1.95185 9.0869,0.18071 20.2387,10.91793 5.5,5.29549 13.7372,13.20629 18.3048,17.57953 l 8.3047,7.95139 17.5093,-17.00382 c 9.6301,-9.3521 19.0102,-17.57444 20.8445,-18.27187 7.1314,-2.71135 14.4117,2.79174 14.4117,10.89353 0,3.94906 -1.8869,6.16373 -21.9551,25.76894 -23.1145,22.5812 -27.7872,26.09176 -33.2634,24.99045 -2.0735,-0.41699 -10.5017,-7.5502 -22.1881,-18.77899 l -18.8446,-18.10658 -17.1869,16.49938 c -22.3553,21.46106 -24.3059,22.68277 -30.8178,19.30194 z M 34.360681,235.93341 c -8.9341,-2.97436 -10.6614,-7.26585 -9.423,-23.4114 4.5801,-59.71251 32.676,-112.668875 81.341799,-153.316599 35.3949,-29.5633 85.1024,-50.8897298 134.3312,-57.6332648 15.3025,-2.09619494 58.4475,-2.09619494 73.75,0 38.8824,5.32625 81.4039,20.9965168 112.5,41.4591748 33.7008,22.176608 63.9871,55.391114 80.3201,88.085669 14.4172,28.8596 22.0982,57.7984 22.577,85.06109 0.2222,12.64891 0.1403,13.06488 -3.2379,16.45791 l -3.4658,3.481 -243.4092,0.22032 c -133.875,0.12119 -244.252899,-0.0606 -245.284199,-0.4039 z M 506.45058,205.05018 C 502.72138,160.93439 477.40768,114.02863 439.37868,80.767653 365.60018,16.239261 253.26328,3.3171742 162.52418,48.921143 107.60248,76.523868 66.872881,125.60674 52.538181,181.46411 c -2.3888,9.30799 -5.5598,31.22893 -4.6492,32.13948 0.3511,0.35112 103.845899,0.6384 229.988499,0.6384 l 229.3501,0 -0.777,-9.19181 z m -233.4798,-80.11094 c -4.0429,-2.28615 -6.5275,-7.97398 -5.4167,-12.39984 1.3657,-5.4413 6.1663,-8.29741 13.9463,-8.29741 5.852,0 7.3132,0.51059 10.4565,3.65385 4.5362,4.53624 4.8067,9.8664 0.7406,14.59354 -2.365,2.74952 -4.1879,3.47235 -9.6875,3.84146 -4.4203,0.29667 -7.9088,-0.18689 -10.0392,-1.3916 z m -60.6619,-38.685671 c -7.3722,-3.335748 -8.2281,-14.047185 -1.4989,-18.760433 4.3121,-3.020314 16.08,-2.699204 19.5499,0.533454 5.3226,4.958737 5.1188,13.356219 -0.4121,16.980172 -4.2702,2.797973 -12.8676,3.405683 -17.6389,1.246807 z m 123.7127,-0.08378 c -7.2714,-3.16302 -8.762,-10.488955 -3.4248,-16.831894 2.9153,-3.464575 3.9412,-3.845906 10.3469,-3.845906 11.3638,0 16.7671,5.739042 13.8177,14.676021 -2.3041,6.98138 -12.0225,9.79374 -20.7397,6.001778 z"
     id="path3395"
     inkscape:connector-curvature="0" />
</svg>
