<?xml version="1.0" encoding="UTF-8" standalone="no"?>
<svg
   xmlns:dc="http://purl.org/dc/elements/1.1/"
   xmlns:cc="http://creativecommons.org/ns#"
   xmlns:rdf="http://www.w3.org/1999/02/22-rdf-syntax-ns#"
   xmlns:svg="http://www.w3.org/2000/svg"
   xmlns="http://www.w3.org/2000/svg"
   viewBox="0 0 67.5 67.5"
   height="67.5"
   width="67.5"
   version="1.1"
   id="svg2">
  <metadata
     id="metadata8">
    <rdf:RDF>
      <cc:Work
         rdf:about="">
        <dc:format>image/svg+xml</dc:format>
        <dc:type
           rdf:resource="http://purl.org/dc/dcmitype/StillImage" />
        <dc:title></dc:title>
      </cc:Work>
    </rdf:RDF>
  </metadata>
  <defs
     id="defs6" />
  <g
     id="g3346">
    <path
       id="path3354"
       d="M 22.469061,64.293625 C 21.798577,62.53012 21.25,59.501063 21.25,57.562387 21.25,55.226924 20.243739,53.378198 18.267877,52.083562 15.005746,49.946132 10,40.662413 10,36.749854 10,35.342505 8.3984769,33.342976 6.2590051,32.079159 0.84611825,28.881688 -0.95670663,25.041021 1.9556472,22.911456 3.2053445,21.997655 5.9975074,21.25 8.1604538,21.25 c 2.8777162,0 5.3404022,-1.339183 9.1806902,-4.99236 3.558407,-3.385031 6.813632,-5.242706 10.110722,-5.769931 C 31.099924,9.9043606 33.289087,8.4974299 36.216167,4.8550687 38.36207,2.184781 40.91526,0 41.889924,0 44.273475,0 46.25,3.9659107 46.25,8.7485233 46.25,11.571914 47.306636,13.5505 50.044896,15.854595 54.384014,19.505721 57.5,24.907858 57.5,28.779388 c 0,1.514362 2.146523,4.580511 5,7.142131 2.75,2.468726 5,5.220276 5,6.114557 0,2.25998 -4.080646,4.213924 -8.800422,4.213924 -2.751932,0 -4.725123,0.966622 -6.450336,3.159875 C 49.459476,52.956487 41.321582,57.5 37.759004,57.5 c -1.287327,0 -4.148741,2.25 -6.358703,5 -4.653176,5.790256 -7.216039,6.304946 -8.93124,1.793625 z m 6.071243,-4.665958 c 1.028105,-1.238788 0.522709,-1.933246 -2.137753,-2.937458 -3.255918,-1.228971 -3.447383,-1.122692 -2.922639,1.622332 0.6176,3.230765 2.964384,3.840663 5.060392,1.315126 z M 44.166585,50.719779 C 47.585562,47.300801 47.12468,45 43.020834,45 41.359375,45 40,45.212555 40,45.472345 c 0,0.25979 -0.870713,2.556252 -1.934916,5.103251 -1.889641,4.52255 -1.874078,4.611598 0.665163,3.805673 1.430044,-0.453878 3.876397,-2.101549 5.436338,-3.66149 z M 35.795344,44.128678 C 35.635269,43.968602 32.015831,42.751899 27.75215,41.424892 21.439905,39.460301 20,39.336072 20,40.756076 20,43.08441 24.518959,47.5 26.901799,47.5 c 1.045989,0 2.578947,1.48618 3.406574,3.302621 l 1.504773,3.302622 2.136621,-4.842761 c 1.175142,-2.663518 2.005652,-4.973731 1.845577,-5.133805 z m 26.42158,-3.480053 c 0.188057,-0.159943 -0.01275,-1.215064 -0.446237,-2.344715 -1.193488,-3.11018 -3.901851,-2.458767 -4.582572,1.102196 -0.523804,2.740104 -0.25468,3.049158 2.041779,2.344715 1.454808,-0.446265 2.798971,-0.942252 2.98703,-1.102196 z M 47.868757,39.157989 c -0.608174,-1.584879 -0.295647,-1.897406 1.289232,-1.289232 5.994592,2.300342 7.858249,-5.266201 3.433371,-13.939677 -4.409769,-8.64386 -5.83685,-8.670444 -7.211551,-0.134336 -0.780766,4.848117 -0.785548,7.829496 -0.01333,8.306759 0.662505,0.40945 0.276738,1.263685 -0.857258,1.898301 -1.133996,0.634616 -1.720305,1.706416 -1.302907,2.381777 0.417396,0.675363 0.0791,2.047042 -0.751767,3.048175 -1.267202,1.52689 -0.887963,1.820244 2.35316,1.820244 3.099095,0 3.704939,-0.414053 3.061045,-2.092011 z M 33.303571,36.875 C 32.272321,35.84375 29.869642,35 27.964286,35 c -5.505371,0 -0.805416,3.045992 5.5625,3.604999 1.250748,0.1098 1.196553,-0.310232 -0.223215,-1.729999 z m 7.231348,-8.65579 c 0.692796,-2.903543 0.534597,-3.399168 -0.768817,-2.40865 -0.902606,0.685928 -3.009772,1.319461 -4.68259,1.407854 -1.672818,0.08839 -3.535515,1.04349 -4.139326,2.12244 -0.60381,1.07895 -1.586897,1.659471 -2.184639,1.290046 -0.597741,-0.369424 -1.440116,-0.1 -1.871946,0.59871 -0.977247,1.58122 0.120588,1.59542 5.438238,0.07034 3.708877,-1.063693 4.26137,-0.905464 4.862303,1.392511 0.784003,2.998027 1.929379,1.467135 3.346777,-4.47325 z M 11.022558,25.625 c 1.098358,-2.410632 1.072787,-3.120625 -0.111856,-3.105859 -2.8401485,0.0354 -5.0312046,2.212365 -4.2570796,4.229703 1.1067011,2.884017 2.7334994,2.465547 4.3689356,-1.123844 z M 39.45576,23.328958 c 1.100271,0.422213 1.79424,-0.08842 1.79424,-1.320222 0,-2.411781 -1.134949,-2.491191 -4.04307,-0.282886 -1.19244,0.905489 -1.766659,2.047755 -1.276043,2.538371 0.490617,0.490616 1.080715,0.325973 1.31133,-0.365875 0.230617,-0.691847 1.22671,-0.948072 2.213543,-0.569389 z M 33.198588,15.664754 C 36.305956,13.314459 34.090047,13.286918 30,15.625 c -2.003039,1.14504 -2.425403,1.802314 -1.176413,1.830706 1.071724,0.02436 3.040474,-0.781566 4.375001,-1.790952 z M 42.480859,9.6875 C 42.470331,8.828125 41.950702,7.31742 41.326129,6.3303776 40.385004,4.8430773 39.853138,4.8157731 38.220269,6.1709335 35.494942,8.4327543 35.755446,9.7308674 39.0625,10.367834 c 1.546875,0.297941 2.953125,0.618313 3.125,0.711938 0.171875,0.09363 0.303886,-0.532897 0.293359,-1.392272 z"
       style="fill:#d1d1d1" />
    <path
       id="path3352"
       d="M 23.820769,65.71027 C 23.027809,64.754812 22.036064,61.813507 21.61689,59.174037 21.133781,56.131971 19.090582,52.35882 16.036041,48.867952 12.986486,45.382783 10.935413,41.597921 10.449472,38.559016 9.8602831,34.874431 8.7006858,33.150879 5.4658096,31.151615 -1.5769017,26.79898 0.90190929,21.25 9.889007,21.25 c 2.657242,0 4.408266,-0.923201 5.810719,-3.063616 C 17.883625,14.853331 26.80633,10 30.750146,10 32.157495,10 34.157024,8.3984769 35.420841,6.2590051 36.636264,4.2014579 38.822389,1.8802388 40.278894,1.1007403 43.917649,-0.84666216 46.25,2.507451 46.25,9.6876832 c 0,3.0029228 0.480735,5.1627478 1.0683,4.7996128 C 49.876747,12.906089 57.5,24.942249 57.5,30.562925 57.5,32.315816 58.019343,33.75 58.654094,33.75 60.572119,33.75 67.5,40.104543 67.5,41.863835 67.5,43.670577 61.226483,46.25 56.832234,46.25 c -1.565963,0 -3.653805,1.311146 -4.748672,2.982122 C 49.946132,52.494254 40.662413,57.5 36.749854,57.5 c -1.407349,0 -3.406878,1.601524 -4.670695,3.740995 -2.909732,4.925784 -6.339209,6.781747 -8.25839,4.469275 z m 2.858961,-9.025685 c -4.032671,-1.662839 -4.99897,-0.550995 -2.911316,3.349821 1.389142,2.595637 1.503423,2.607054 3.948297,0.394473 2.506131,-2.268018 2.501346,-2.285294 -1.036981,-3.744294 z m 7.146106,-6.236504 c 1.367847,-3.191055 2.172557,-6.116355 1.788247,-6.500665 -1.072989,-1.072989 -14.820222,-5.157944 -15.401616,-4.57655 -0.28199,0.281989 -0.164157,1.901448 0.26185,3.598795 0.528235,2.104655 2.166068,3.545328 5.15012,4.530154 4.069927,1.343196 5.027758,2.883762 4.46887,7.187685 -0.433075,3.335049 1.357492,1.301317 3.732529,-4.239419 z m 11.132474,0.01709 C 47.043739,48.60704 48.75,46.678776 48.75,46.180135 c 0,-0.498641 -1.907836,-1.129349 -4.239636,-1.401574 -4.01891,-0.469185 -4.369359,-0.187907 -6.731312,5.402674 l -2.491676,5.897627 2.939621,-1.117642 c 1.616792,-0.614703 4.645883,-2.637926 6.731313,-4.496053 z M 61.25,41.266442 c 1.423203,-0.907263 1.552283,-1.713019 0.535696,-3.34396 C 59.607744,34.428328 57.5,34.476697 57.5,38.020834 c 0,2.521102 -0.6167,3.224969 -2.8125,3.210025 -1.546875,-0.0105 -3.569074,-0.498633 -4.493776,-1.084679 -1.24221,-0.787271 -0.834162,-1.27815 1.5625,-1.879674 C 54.477865,37.583418 55,36.745517 55,33.061036 c 0,-5.37058 -2.544956,-11.670455 -5.932849,-14.686381 -2.497402,-2.223206 -2.544319,-2.15707 -3.890273,5.48404 -0.749312,4.253913 -1.062449,8.219692 -0.695861,8.812845 0.366589,0.593154 0.03292,1.07846 -0.741481,1.07846 -0.839161,0 -1.087438,1.010016 -0.614536,2.5 0.455178,1.434139 0.224625,2.5 -0.540765,2.5 -0.73383,0 -1.334235,0.526861 -1.334235,1.170802 0,2.13295 16.973519,3.274963 20,1.34564 z M 38.454539,37.421875 C 38.851025,35.95532 38.688679,35.969681 37.57141,37.5 36.364591,39.152974 36.014724,39.130682 34.616801,37.311756 33.06527,35.29296 29.375966,34.45657 24.375,34.989872 c -1.423058,0.151754 0.461591,1.253593 4.375,2.557794 7.60568,2.534704 8.99012,2.516759 9.704539,-0.125791 z m 2.728123,-11.936946 c 0.792803,-4.55261 1.132283,-8.586652 0.754399,-8.964534 C 41.559178,16.142511 41.25,16.770834 41.25,17.916666 41.25,19.0625 40.475125,20 39.528056,20 c -2.101295,0 -4.814734,3.046656 -3.703307,4.158082 0.441682,0.441683 1.526191,-0.172572 2.410018,-1.365012 1.494358,-2.01615 1.582778,-1.996429 1.261848,0.281428 -0.223174,1.584005 -1.785413,2.822716 -4.421414,3.505773 -4.740756,1.228453 -9.623642,5.278723 -7.75567,6.433193 0.691748,0.427524 1.611038,0.20564 2.042868,-0.493074 1.20437,-1.948712 6.874977,-1.507755 7.682813,0.59743 1.285789,3.350714 2.669167,0.798619 4.13745,-7.632891 z m -29.591379,4.356353 c -0.930588,-0.930587 -1.025941,-2.415496 -0.280939,-4.375 C 12.264987,22.955381 12.053052,22.5 9.9298305,22.5 c -3.8452201,0 -4.5731461,3.753614 -1.2497989,6.444697 3.1127794,2.520577 5.1682794,3.153614 2.9112514,0.896585 z M 23.541666,16.666666 c 2.01377,-2.155746 0.105013,-2.155746 -2.843145,0 -1.656231,1.211066 -1.791962,1.666668 -0.496529,1.666668 0.980527,0 2.483379,-0.75 3.339674,-1.666668 z M 33.7138,16.298825 c 3.441306,-2.176349 0.12434,-2.903922 -3.991129,-0.87545 -3.849334,1.897297 -3.908282,2.020265 -0.972671,2.029021 1.71875,0.0051 3.95246,-0.51398 4.9638,-1.153571 z M 42.5,8.710769 c 0,-3.5820589 -3.703929,-4.6718303 -5.867605,-1.7263689 -1.602635,2.1817025 -1.450304,2.4595979 1.743259,3.1802069 1.924641,0.434283 3.639971,0.856158 3.811846,0.9375 0.171875,0.08134 0.3125,-0.994761 0.3125,-2.391338 z"
       style="fill:#9f9f9f" />
    <path
       id="path3350"
       d="M 23.333334,65.416666 C 22.875,64.958334 22.5,63.483209 22.5,62.138611 c 0,-1.948784 0.3535,-2.151345 1.742567,-0.99852 1.35106,1.12128 2.234974,0.953796 3.934227,-0.745456 2.248386,-2.248386 8.039115,-13.76753 8.060995,-16.035246 0.0068,-0.696087 -3.60126,-2.300463 -8.017724,-3.565283 C 13.202861,36.49337 1.25,29.660295 1.25,25.376169 1.25,23.527149 6.1904614,21.25 10.202062,21.25 c 1.396622,0 5.069892,-2.227505 8.162822,-4.950011 C 24.288651,11.085681 31.880414,8.587445 37.5,10.00316 c 2.49247,0.627915 3.20156,1.68633 3.50324,5.229073 0.310647,3.648037 -0.09685,4.566043 -2.280265,5.137021 -1.462179,0.382367 -2.963618,1.861959 -3.33653,3.28798 C 34.667834,26.405207 32.5,27.257211 32.5,24.791666 c 0,-1.620159 -1.784429,-0.247521 -2.03125,1.5625 -0.08594,0.630209 -0.226563,1.708334 -0.3125,2.395834 -0.08594,0.6875 -1,1.25 -2.03125,1.25 -1.03125,0 -1.875,0.810552 -1.875,1.801229 0,3.340997 -2.726489,3.520032 -8.982566,0.589842 -5.69351,-2.666697 -6.165462,-3.213433 -5.527477,-6.403357 0.548527,-2.742635 0.236905,-3.483625 -1.458707,-3.468573 -1.1859375,0.01053 -3,0.589393 -4.03125,1.286366 -4.2280467,2.857542 13.755315,12.956195 27.745857,15.580838 l 4.325079,0.811389 2.089531,-9.509393 C 43.113554,18.386685 43.207529,6.4430424 40.609081,5.4459244 39.569076,5.046837 37.783337,5.4863656 36.640774,6.4226554 34.792857,7.9369556 34.8029,7.756881 36.731686,4.7924595 c 2.978244,-4.57737724 5.349038,-5.18867418 7.60911,-1.9619691 2.554526,3.6470961 2.381923,11.5942336 -0.561671,25.8608856 -1.340919,6.499008 -2.197361,12.05705 -1.903205,12.351208 0.294157,0.294156 4.484974,0.817461 9.312925,1.1629 10.439071,0.746911 14.087839,-0.94667 10.52396,-4.884712 C 58.943944,34.261219 57.760175,34.392369 57.274439,37.8125 56.869015,40.667144 51.25,42.78852 51.25,40.086939 51.25,39.351622 52.055845,38.75 53.040765,38.75 c 4.70573,0 3.032076,-12.047647 -2.60418,-18.745958 -3.311145,-3.935071 -3.24452,-6.603124 0.09566,-3.831017 C 52.982774,18.206779 57.5,27.657199 57.5,30.750146 c 0,1.407349 1.601524,3.406878 3.740995,4.670695 5.180238,3.060041 6.783531,6.338637 4.161746,8.510403 C 63.569935,45.449457 50.6896,45.868351 42.070307,44.69006 40.367512,44.457281 39.149971,45.922591 37.408285,50.300803 32.65388,62.252311 26.634029,68.717361 23.333334,65.416666 Z m 0.470547,-50.190372 c -1.887132,-0.629044 -5.204967,2.267972 -4.291021,3.746768 0.41197,0.66658 1.822316,0.206089 3.207145,-1.047164 1.461292,-1.322452 1.9044,-2.426097 1.083876,-2.699604 z m 10.644707,0.43846 c 1.334527,-1.009385 2.145162,-1.891098 1.801412,-1.959361 -4.946995,-0.982398 -8.78942,-0.902882 -9.468531,0.195945 -0.56675,0.917019 0.132052,1.099717 2.124495,0.555436 2.9646,-0.80985 2.964367,-0.808249 -0.155964,1.071787 l -3.125,1.88285 3.198587,0.0443 c 1.759224,0.02436 4.290474,-0.781566 5.625001,-1.790952 z M 21.395001,56.934509 c -0.07975,-1.34227 -1.874567,-4.22495 -3.988481,-6.405956 -3.381591,-3.488917 -7.908694,-12.914214 -6.763208,-14.080803 0.230737,-0.234987 2.430384,0.299887 4.888104,1.18861 C 18.930212,38.865381 20,39.955506 20,42.189894 c 0,2.169992 1.131506,3.410446 4.329916,4.746827 7.382473,3.084594 8.682464,10.654088 1.521055,8.856689 -2.388906,-0.599577 -3.307897,-0.257135 -3.739165,1.393316 -0.492819,1.886003 -0.591832,1.851164 -0.716805,-0.252217 z M 36.25,56.334235 C 36.25,55.600405 37.210659,55 38.384796,55 c 1.174139,0 4.217114,-2.033328 6.762168,-4.518506 2.660631,-2.598036 5.241213,-4.139129 6.071631,-3.625903 1.025357,0.633705 0.787021,1.618845 -0.821716,3.39648 C 46.61025,54.436249 36.25,58.890429 36.25,56.334235 Z M 32.774755,35.700504 c -3.163531,-3.336745 -1.591476,-5.821918 1.894949,-2.995617 1.737491,1.408513 1.894457,1.395117 1.002109,-0.08552 -0.718226,-1.191723 -0.594547,-1.469153 0.385052,-0.86373 1.580307,0.976685 2.017644,7.007599 0.505635,6.972769 -0.515625,-0.01187 -2.22011,-1.374432 -3.787745,-3.0279 z m 4.823929,-11.42967 c 0.05998,-1.456179 0.356176,-1.752375 0.755208,-0.755209 0.361089,0.902344 0.31668,1.980469 -0.09869,2.395834 -0.415365,0.415364 -0.710801,-0.322918 -0.656525,-1.640625 z"
       style="fill:#5f5f5f" />
    <path
       id="path3348"
       d="m 23.258736,64.272766 c -1.073905,-2.798552 -1.027841,-2.85909 1.643899,-2.160413 2.778689,0.726643 7.600762,-5.718448 10.546439,-14.09617 l 1.796302,-5.108817 -6.435188,-1.598323 C 22.720969,39.299903 4.9330766,31.111724 2.6726554,28.356684 0.6701397,25.915984 1.6172894,22.5 4.296538,22.5 c 1.0747441,0 1.59431,0.731466 1.2173431,1.713826 -1.3391467,3.489761 8.8579929,9.902065 21.9004949,13.771769 10.922164,3.2406 10.887938,3.260186 13.307479,-7.615188 3.975301,-17.868221 2.665281,-29.48436533 -2.856378,-25.3279323 -1.372353,1.03304 -1.191045,0.5577434 0.467927,-1.2266585 5.734076,-6.1676155 8.542031,0.5890283 6.616796,15.9216708 -0.604599,4.815052 -1.765673,11.401158 -2.580164,14.635794 -1.855498,7.368856 -0.954296,8.088437 10.129964,8.088437 8.900689,0 12.161149,-1.201034 10.545196,-3.884464 -0.855074,-1.419923 -0.674312,-1.417717 1.089856,0.0133 5.971917,4.844165 0.383367,7.099643 -14.916028,6.019949 C 41.496584,44.065525 38.746796,44.265659 38.737789,45.373348 38.731072,46.199256 37.287594,49.96875 35.530057,53.75 30.561009,64.440655 25.115158,69.110521 23.258736,64.272766 Z M 25,55.348085 C 18.708164,52.983876 11.25,43.727775 11.25,38.283377 c 0,-3.211242 6.928464,0.404519 8.43791,4.403498 0.766351,2.030296 2.838617,4.110336 4.861011,4.87925 3.934933,1.496059 5.403553,3.252469 5.431938,6.496375 C 30.000096,56.261244 28.476632,56.654457 25,55.348085 Z M 38.957998,55.224647 C 40.103647,54.75734 42.770651,52.828125 44.884675,50.9375 46.9987,49.046875 49.664156,47.5 50.807912,47.5 c 1.844683,0 1.810943,0.296815 -0.298727,2.627974 -2.952043,3.26197 -8.40209,6.150651 -11.38461,6.03417 -2.011174,-0.07855 -2.028827,-0.177899 -0.166577,-0.9375 z M 51.823331,39.916398 c -0.494743,-0.800513 0.10035,-1.175266 1.488729,-0.9375 2.011274,0.344441 2.306179,-0.456107 2.2611,-6.137974 -0.04235,-5.338018 -0.816931,-7.626137 -4.231535,-12.5 -3.011515,-4.298513 -3.384387,-5.267201 -1.334121,-3.465924 5.562875,4.887305 9.029029,16.416392 6.73376,22.397766 -0.866044,2.256875 -3.692293,2.626759 -4.917933,0.643632 z M 33.895001,34.6875 c 0.11035,-2.140295 0.282335,-2.286016 0.719603,-0.609696 0.316031,1.211542 1.09453,1.88147 1.729998,1.488728 C 36.980071,35.173791 37.5,35.448155 37.5,36.176229 37.5,36.904302 36.65625,37.5 35.625,37.5 c -1.154075,0 -1.819247,-1.081389 -1.729999,-2.8125 z M 17.100159,32.206905 c -5.470448,-2.352353 -5.950337,-2.889399 -5.215177,-5.836326 1.115052,-4.469743 6.30014,-11.014269 10.410328,-13.13973 4.64953,-2.404365 12.025711,-3.6722818 15.821474,-2.719606 2.593611,0.650955 3.133216,1.535752 3.133216,5.137572 0,2.393151 -0.421875,4.261884 -0.9375,4.152736 C 38.090699,19.331245 35,21.706172 35,23.883736 35,25.185181 34.4375,26.25 33.75,26.25 c -0.6875,0 -1.25,-0.826096 -1.25,-1.835769 0,-1.114352 -0.733338,-1.554361 -1.866106,-1.119677 -1.301783,0.499541 -1.624662,1.678085 -1.067697,3.89721 0.558845,2.226616 0.367942,2.915073 -0.636235,2.29446 -0.865987,-0.53521 -1.916921,0.381825 -2.651365,2.313558 -1.428338,3.756815 -1.392367,3.755219 -9.178438,0.407123 z M 23.125,17.5 c 2.736602,-3.023912 5.392041,-3.37399 2.965556,-0.390961 -1.510185,1.856563 -1.44145,2.006202 0.574178,1.25 1.259355,-0.472471 3.228105,-0.867653 4.375,-0.87818 C 32.18663,17.470331 33.96875,16.897142 35,16.207105 36.632976,15.114436 36.581552,14.727978 34.601607,13.213136 32.968186,11.963418 31.253577,11.781983 28.510739,12.568619 23.812747,13.915985 18.75,17.13712 18.75,18.778816 c 0,1.975545 1.944117,1.407279 4.375,-1.278816 z m 7.5,15 c 0.424899,-0.6875 1.020595,-1.25 1.323771,-1.25 0.303176,0 0.551229,0.5625 0.551229,1.25 0,0.6875 -0.595698,1.25 -1.323771,1.25 -0.728074,0 -0.976128,-0.5625 -0.551229,-1.25 z"
       style="fill:#272727" />
  </g>
  <path
     id="path3356"
     d="m 20.883754,33.706 c -3.127618,-1.162688 -7.691966,-3.366543 -8.452911,-4.081415 -1.968798,-1.849589 0.746181,-7.942437 5.774012,-12.957805 1.86883,-1.864199 3.105498,-2.832178 4.447687,-3.481346 5.17991,-2.505336 12.432795,-3.6186081 15.850668,-2.432978 2.082395,0.722364 2.550719,1.525591 2.573091,4.413138 0.0101,1.301985 -0.07959,2.83347 -0.199288,3.4033 -0.204313,0.972677 -0.295873,1.044875 -1.496765,1.180233 -1.362044,0.153522 -2.959428,1.16832 -3.758354,2.387635 -0.253921,0.387532 -0.573977,1.312093 -0.711236,2.054578 -0.37894,2.049837 -1.762753,2.675061 -2.126778,0.960905 -0.473025,-2.227434 -1.49995,-2.69099 -2.887511,-1.303429 -0.687208,0.687207 -0.723206,0.851534 -0.516918,2.35964 0.121952,0.891546 0.234955,2.007116 0.251118,2.479044 0.02669,0.779123 -0.04508,0.849313 -0.780189,0.76306 -1.103733,-0.129506 -1.817595,0.580279 -2.822119,2.806001 -0.459957,1.019128 -0.989359,1.950287 -1.176447,2.069243 -0.609057,0.387256 -1.730121,0.212147 -3.96806,-0.619804 z m 0.510303,-14.565519 c 0.613512,-0.452927 1.630307,-1.364488 2.259544,-2.025693 1.587535,-1.668186 3.289195,-2.524221 3.289195,-1.654657 0,0.197139 -0.449976,0.991337 -0.999947,1.764883 -0.549971,0.773546 -0.944432,1.461963 -0.87658,1.529815 0.06785,0.06785 0.743067,-0.08051 1.500477,-0.329686 0.75741,-0.249179 2.342417,-0.586502 3.522237,-0.749606 2.732723,-0.377785 3.916381,-0.756127 5.076801,-1.622737 1.24797,-0.931994 1.180903,-1.623492 -0.258594,-2.666258 -1.494249,-1.082428 -3.113311,-1.527022 -4.635907,-1.273017 -2.690041,0.448761 -7.439331,2.549285 -9.814079,4.340587 -1.274985,0.961737 -1.892099,1.995373 -1.684687,2.821768 0.237699,0.947069 1.224304,0.896112 2.62154,-0.135399 z"
     style="fill:#262626;fill-opacity:1" />
  <path
     id="path3358"
     d="m 19.441248,39.970803 c -0.577389,-1.013956 -2.916853,-2.190695 -6.326292,-3.182091 -2.11321,-0.614479 -2.265249,-0.623706 -2.605684,-0.158133 -0.435879,0.5961 -0.7696107,0.650965 -0.5548127,0.09121 0.1776827,-0.463034 -0.484292,-1.876172 -1.537417,-3.281973 -0.398845,-0.532412 -0.608889,-0.917135 -0.466764,-0.85494 0.142124,0.0622 1.867253,0.934564 3.8336197,1.938598 1.966367,1.004033 5.505826,2.586155 7.865466,3.515825 3.150653,1.24132 3.948374,1.644741 3.003178,1.518757 -2.454443,-0.327149 -2.401849,-0.337327 -2.564319,0.496284 l -0.152842,0.784214 -0.494133,-0.867752 z"
     style="fill:#262626;fill-opacity:1" />
  <path
     id="path3360"
     d="m 50.798708,49.964829 c 1.49263,-1.660165 1.62401,-2.326628 0.59197,-3.002849 -0.68709,-0.450198 -0.78971,-0.437486 -2.14513,0.265729 -1.36337,0.707344 -1.898099,0.657814 -0.99449,-0.09212 0.52082,-0.432242 0.56374,-1.335961 0.0715,-1.505703 -0.19664,-0.06781 2.6671,-0.201695 6.36387,-0.297525 3.69677,-0.09583 7.10752,-0.241988 7.57945,-0.324796 0.49489,-0.08684 0.31331,0.03379 -0.42902,0.285007 -0.7079,0.239561 -2.3811,0.577137 -3.71822,0.75017 -3.15494,0.408268 -4.11121,0.920742 -6.27746,3.36416 -0.98446,1.110418 -1.91731,2.018942 -2.073,2.018942 -0.15568,0 0.30805,-0.657459 1.03052,-1.461019 z"
     style="fill:#262626;fill-opacity:1" />
  <path
     id="path3362"
     d="m 21.902768,60.13466 c -0.222725,-1.142165 -0.18,-1.663828 0.221331,-2.702456 0.465421,-1.204489 0.498735,-1.232018 0.51917,-0.429026 0.01201,0.471928 0.276425,1.419114 0.587588,2.104857 0.692009,1.52505 0.69272,1.549201 0.03954,1.341889 -0.365374,-0.115965 -0.612626,0.02664 -0.80892,0.466551 -0.251267,0.563111 -0.313397,0.476172 -0.558707,-0.781815 z"
     style="fill:#262626;fill-opacity:1" />
  <path
     id="path3364"
     d="m 21.508474,57.379464 c 0,-1.104519 -0.997316,-3.179756 -2.347223,-4.884152 -0.477358,-0.602714 -0.813927,-1.14984 -0.747931,-1.215836 0.066,-0.066 0.813406,0.448814 1.660912,1.144021 0.847507,0.695207 2.256987,1.652662 3.132179,2.127678 1.386217,0.752379 1.489908,0.864648 0.804712,0.871288 -0.836751,0.0081 -1.907013,0.868466 -1.966367,1.580715 -0.0673,0.807654 -0.107532,0.953666 -0.321769,1.167903 -0.117982,0.117982 -0.214513,-0.238246 -0.214513,-0.791617 z"
     style="fill:#262626;fill-opacity:1" />
  <path
     id="path3366"
     d="m 29.263686,57.900696 c -0.421522,-0.507904 -3.790071,-1.88966 -4.683539,-1.921157 -0.352291,-0.01242 -0.472273,-0.08996 -0.266626,-0.172304 0.205646,-0.08235 1.195644,0.0053 2.199996,0.194836 1.549376,0.292346 1.958639,0.278437 2.70078,-0.09179 0.704679,-0.35154 0.874686,-0.361857 0.874686,-0.05308 0,0.210798 0.155967,0.435258 0.346593,0.4988 0.244347,0.08145 0.173954,0.388195 -0.238618,1.039808 -0.497315,0.785455 -0.637488,0.861287 -0.933272,0.504891 z"
     style="fill:#262626;fill-opacity:1" />
  <path
     id="path3368"
     d="m 33.243829,59.21792 c 0.0048,-0.116943 0.423062,-0.931975 0.929555,-1.811183 0.953458,-1.655085 1.413764,-1.828739 2.138983,-0.806948 0.198021,0.278999 0.648497,0.562901 1.00106,0.630893 0.403037,0.07773 0.250958,0.138081 -0.409634,0.162571 -0.719358,0.02667 -1.46341,0.354013 -2.35964,1.038121 -0.719941,0.549543 -1.305087,0.903489 -1.300324,0.786546 z"
     style="fill:#262626;fill-opacity:1" />
  <path
     id="path3370"
     d="m 30.661017,35.122882 c -0.393274,-0.125949 -1.924382,-0.241827 -3.402465,-0.257507 l -2.687421,-0.02851 0.737217,-0.68323 c 0.405469,-0.375776 0.881529,-1.219165 1.05791,-1.874197 0.324491,-1.205065 1.164112,-2.304862 1.759609,-2.304862 0.17876,0 -0.0143,0.339321 -0.429026,0.754045 -0.888248,0.888248 -0.979069,1.96557 -0.200814,2.382079 0.731781,0.391637 0.645442,0.417474 1.877913,-0.561971 1.242181,-0.987161 1.722757,-1.100093 1.29714,-0.30482 -0.435908,0.8145 -0.361672,1.388131 0.204449,1.579813 0.275292,0.09321 0.731777,0.488006 1.014412,0.877325 0.494499,0.681151 0.494499,0.706776 0,0.679341 -0.282635,-0.01568 -0.835651,-0.131558 -1.228924,-0.257506 z"
     style="fill:#262626;fill-opacity:1" />
  <path
     id="path3372"
     d="m 35.523305,26.507459 c 0.865201,-0.311758 1.893215,-0.592325 2.284476,-0.623481 0.452147,-0.036 0.750598,-0.260759 0.818994,-0.61676 0.162272,-0.844635 0.938468,-1.907324 1.298104,-1.777234 0.174738,0.06321 0.542944,-9.16e-4 0.818235,-0.142509 0.556889,-0.286418 0.720019,-2.477561 0.221564,-2.976017 -0.177648,-0.177648 -0.182005,-0.63991 -0.012,-1.272775 0.146832,-0.546596 0.340494,-1.35302 0.430359,-1.792054 0.09728,-0.47524 0.288984,-0.720624 0.473768,-0.606421 0.316361,0.195521 0.266155,1.020641 -0.376971,6.195449 -0.249437,2.007045 -0.404298,2.502648 -0.782004,2.502648 -0.259037,0 -0.726581,0.179033 -1.038988,0.397852 -0.827687,0.579735 -3.506031,1.32142 -4.687981,1.298192 -0.997428,-0.0196 -0.984858,-0.03296 0.552442,-0.58689 z"
     style="fill:#262626;fill-opacity:1" />
  <path
     id="path3374"
     d="m 42.050083,17.032309 c -0.05027,-0.353945 -0.220104,-0.608741 -0.377414,-0.566212 -0.162901,0.04404 -0.354759,-0.865066 -0.445715,-2.111997 -0.14863,-2.037594 -0.226742,-2.249226 -1.127096,-3.053693 l -0.967399,-0.86437 0.802943,0.201526 c 0.441619,0.110839 1.174051,0.275747 1.627626,0.366462 l 0.824684,0.164937 0,3.253443 c 0,3.062313 -0.130313,4.069643 -0.337629,2.609904 z"
     style="fill:#262626;fill-opacity:1" />
  <path
     id="path3376"
     d="m 45.122181,22.395127 c 0.08448,-0.786546 0.337877,-2.781515 0.563096,-4.433262 0.225218,-1.651748 0.429197,-3.839778 0.453287,-4.862289 0.04162,-1.766531 0.05295,-1.795016 0.227516,-0.572033 0.243839,1.708275 0.466506,2.002118 1.517158,2.002118 0.8507,0 0.86625,0.02128 0.39552,0.541425 -0.44695,0.493872 -0.45212,0.632033 -0.0589,1.573093 0.38468,0.920671 0.19551,1.474266 -0.2548,0.745652 -0.0972,-0.15731 -0.429769,-0.286017 -0.738997,-0.286017 -0.681964,0 -0.934295,0.61174 -1.688184,4.092772 -0.332032,1.533135 -0.505267,2.032632 -0.415676,1.198541 z"
     style="fill:#262626;fill-opacity:1" />
  <path
     id="path3378"
     d="m 33.804583,8.2770646 c 0.709333,-0.7297691 1.37837,-1.203263 1.486748,-1.0522088 0.115638,0.1611722 0.440607,0.054229 0.786546,-0.2588418 0.748989,-0.6778249 0.745351,-0.4556624 -0.0136,0.8306675 -0.47109,0.7984394 -0.529898,1.1103761 -0.268673,1.4251336 0.28178,0.3395232 0.04987,0.4013163 -1.473144,0.3925302 l -1.80757,-0.010428 1.289696,-1.3268528 z"
     style="fill:#262626;fill-opacity:1" />
  <path
     id="path3380"
     d="m 12.069915,24.189215 c 0,-0.530551 -0.154449,-1.119088 -0.34322,-1.307859 -0.576103,-0.576102 -2.8266187,-0.393201 -4.4475637,0.361458 -0.888985,0.413882 -1.501589,0.567788 -1.501589,0.377248 0,-0.177013 -0.197777,-0.540383 -0.439504,-0.807488 -0.406595,-0.449282 -0.300466,-0.520572 1.417361,-0.952076 1.021277,-0.256537 2.364352,-0.46643 2.984613,-0.46643 1.1646907,0 3.6534857,-1.133464 5.3855017,-2.452701 1.353818,-1.031173 1.376668,-0.857036 0.108028,0.823265 -0.629836,0.834213 -1.599313,2.388057 -2.154392,3.452986 -0.9541,1.830459 -1.009235,1.883538 -1.009235,0.971597 z"
     style="fill:#262626;fill-opacity:1" />
  <path
     id="path3382"
     d="m 65.386488,39.669395 c -0.97385,-1.078736 -2.78938,-2.393994 -2.88959,-2.093361 -0.0536,0.160959 -0.73851,-0.325154 -1.52191,-1.08025 -1.51638,-1.461594 -2.59979,-1.764577 -3.11945,-0.872373 -0.22406,0.384683 -0.29427,0.136439 -0.30338,-1.072563 -0.007,-0.865202 -0.0748,-2.087924 -0.15183,-2.717161 -0.12198,-0.996869 -0.10572,-1.040476 0.12639,-0.338924 0.43549,1.316274 1.60433,2.628181 3.36711,3.779242 2.34627,1.532073 3.96201,2.871116 4.67843,3.877239 0.72916,1.024002 0.59889,1.387326 -0.18577,0.518151 z"
     style="fill:#262626;fill-opacity:1" />
  <path
     id="path3384"
     d="m 35.418823,35.356113 c -0.439649,-0.24604 -1.149037,-2.221238 -0.890579,-2.479696 0.07343,-0.07343 0.369665,0.08022 0.658307,0.341438 0.871414,0.788619 1.272689,0.597145 0.773124,-0.368906 -0.539666,-1.0436 -0.543811,-1.181547 -0.02957,-0.984213 0.449219,0.172381 1.3093,2.106676 1.3093,2.944573 0,0.607073 -1.114663,0.941856 -1.820583,0.546804 z"
     style="fill:#262626;fill-opacity:1" />
  <path
     id="path3386"
     d="m 34.566575,36.887966 c -0.334433,-0.369543 -0.467455,-1.02009 -0.453252,-2.216631 0.01437,-1.210773 0.09018,-1.530505 0.265914,-1.121547 0.210195,0.489151 0.248724,0.499511 0.265914,0.0715 0.02191,-0.545545 0.452842,-0.671289 0.735145,-0.214513 0.09722,0.157309 0.359048,0.286017 0.581835,0.286017 0.319566,0 0.3445,-0.159303 0.118126,-0.75471 -0.157817,-0.41509 -0.228475,-0.813174 -0.157019,-0.88463 0.23348,-0.23348 1.094194,1.715882 1.183928,2.68138 0.04818,0.518353 0.166687,1.070438 0.263357,1.226854 0.266587,0.431347 -0.899281,1.449326 -1.659881,1.449326 -0.368892,0 -0.883723,-0.235373 -1.144067,-0.523051 z m 1.602784,-1.394572 c -0.352563,-0.06799 -0.835216,-0.400872 -1.072564,-0.739733 -0.237348,-0.338861 -0.431541,-0.501077 -0.431541,-0.360479 0,0.51412 0.962918,1.30068 1.545918,1.262783 0.563167,-0.03661 0.560652,-0.04639 -0.04181,-0.162571 z"
     style="fill:#262626;fill-opacity:1" />
  <path
     id="path3388"
     d="m 32.780583,35.630093 c -1.270357,-1.373011 -1.325073,-1.587722 -0.591534,-2.321261 0.29902,-0.29902 0.465256,-0.762979 0.384298,-1.072563 -0.174514,-0.667342 0.307894,-0.704341 1.183851,-0.0908 0.5145,0.36037 0.579948,0.53837 0.315229,0.857337 -0.207482,0.25 -0.287022,1.053124 -0.209897,2.119358 0.0683,0.944249 0.104468,1.716816 0.08037,1.716816 -0.0241,0 -0.54714,-0.544001 -1.162319,-1.20889 z"
     style="fill:#262626;fill-opacity:1" />
  <path
     id="path3390"
     d="m 37.81144,24.380366 c 0,-1.572017 0.467237,-1.453045 0.620884,0.158096 0.07589,0.795736 -0.0023,1.14586 -0.255804,1.14586 -0.242709,0 -0.36508,-0.437071 -0.36508,-1.303956 z"
     style="fill:#262626;fill-opacity:1" />
  <path
     id="path3392"
     d="m 52.133028,19.102084 c -0.68104,-0.935206 -1.66361,-2.024817 -2.1835,-2.421357 -1.66805,-1.272283 -1.69479,-0.895725 -0.11045,1.555555 1.52962,2.366612 1.25045,2.551091 -0.3715,0.245497 -1.55104,-2.204792 -1.72953,-2.668307 -1.19752,-3.109838 0.67332,-0.558802 2.51292,0.888123 4.03023,3.169938 0.73181,1.100546 1.27216,2.0594 1.20077,2.130787 -0.0714,0.07139 -0.687,-0.635375 -1.36803,-1.570582 z"
     style="fill:#262626;fill-opacity:1" />
  <path
     id="path3394"
     d=""
     style="fill:#262626;fill-opacity:1" />
  <path
     id="path3396"
     d="m 35.95233,7.0932203 c 0.09722,-0.1573093 0.233526,-0.286017 0.302897,-0.286017 0.06937,0 0.126129,0.1287077 0.126129,0.286017 0,0.1573093 -0.136304,0.2860169 -0.302897,0.2860169 -0.166593,0 -0.223351,-0.1287076 -0.126129,-0.2860169 z"
     style="fill:#262626;fill-opacity:1" />
  <path
     id="path3398"
     d="M 42.609996,12.527543 C 42.391776,8.753847 41.835072,6.2726643 41.062776,5.6317152 40.048509,4.7899487 36.672765,5.6426182 36.662993,6.743044 36.659593,7.1223334 36.602763,7.1481252 36.416779,6.8547262 36.222068,6.547562 36.141072,6.561495 36.00111,6.9262302 35.9055,7.1753839 35.597997,7.3772661 35.317769,7.3748573 35.01638,7.3722573 34.931764,7.2846453 35.110614,7.1603446 35.276908,7.0447714 36.105758,5.9406462 36.952503,4.7067327 37.799248,3.472819 38.93181,2.1278244 39.469307,1.7178555 c 1.070068,-0.81618037 2.677999,-0.99780367 3.275926,-0.370031 0.291431,0.3059787 0.242441,0.3406577 -0.265022,0.1876014 -0.342399,-0.1032712 -1.059382,-0.00524 -1.593295,0.2178398 -0.950576,0.3971759 -3.933526,3.1746671 -3.933526,3.6625934 0,0.1359101 0.639326,-0.106799 1.420725,-0.5393536 1.333361,-0.7381022 1.469667,-0.7598346 2.216631,-0.35342 0.437748,0.2381741 1.020822,0.891026 1.295719,1.4507827 0.654691,1.3331098 1.127097,4.9729848 1.017621,7.8407508 -0.08293,2.17243 -0.0978,2.107346 -0.29409,-1.287076 z"
     style="fill:#262626;fill-opacity:1" />
  <path
     id="path3400"
     d="m 37.088678,57.133695 c -0.09298,-0.150439 0.09596,-0.273525 0.419866,-0.273525 0.690606,0 0.760277,0.159057 0.169048,0.385933 -0.230927,0.08861 -0.495938,0.03803 -0.588914,-0.112408 z"
     style="fill:#262626;fill-opacity:1" />
  <path
     id="path3402"
     d="m 48.277788,47.884124 c 0.0969,-0.252576 0.29144,-0.388018 0.43227,-0.300983 0.14082,0.08704 0.25604,4.91e-4 0.25604,-0.19232 0,-0.192812 0.0863,-0.26431 0.19168,-0.158885 0.10543,0.105424 0.48481,-3.81e-4 0.84307,-0.235122 0.60459,-0.396144 1.53941,-0.332776 1.53941,0.104351 0,0.104713 -0.54701,0.328192 -1.21558,0.49662 -0.66856,0.168427 -1.44227,0.405082 -1.71934,0.525899 -0.38891,0.169581 -0.46359,0.114958 -0.32755,-0.23956 z"
     style="fill:#262626;fill-opacity:1" />
  <path
     id="path3404"
     d="m 36.461722,56.657055 c -0.217889,-0.56781 0.880487,-1.517072 1.738926,-1.502852 0.604688,0.01002 0.604212,0.01438 -0.04066,0.372385 -0.855832,0.475129 -0.529337,0.755735 0.914691,0.786132 0.983162,0.02069 1.054796,0.05858 0.45286,0.239518 -1.774438,0.533378 -2.886772,0.571408 -3.06582,0.104817 z"
     style="fill:#262626;fill-opacity:1" />
</svg>
