<?xml version="1.0" encoding="UTF-8" standalone="no"?>
<!-- Created with Inkscape (http://www.inkscape.org/) -->

<svg
   xmlns:dc="http://purl.org/dc/elements/1.1/"
   xmlns:cc="http://creativecommons.org/ns#"
   xmlns:rdf="http://www.w3.org/1999/02/22-rdf-syntax-ns#"
   xmlns:svg="http://www.w3.org/2000/svg"
   xmlns="http://www.w3.org/2000/svg"
   xmlns:sodipodi="http://sodipodi.sourceforge.net/DTD/sodipodi-0.dtd"
   xmlns:inkscape="http://www.inkscape.org/namespaces/inkscape"
   id="svg2"
   version="1.1"
   inkscape:version="0.91 r13725"
   width="68.75"
   height="68.75"
   viewBox="0 0 68.75 68.75"
   sodipodi:docname="services-icon-4.svg">
  <metadata
     id="metadata8">
    <rdf:RDF>
      <cc:Work
         rdf:about="">
        <dc:format>image/svg+xml</dc:format>
        <dc:type
           rdf:resource="http://purl.org/dc/dcmitype/StillImage" />
        <dc:title></dc:title>
      </cc:Work>
    </rdf:RDF>
  </metadata>
  <defs
     id="defs6" />
  <sodipodi:namedview
     pagecolor="#ffffff"
     bordercolor="#666666"
     borderopacity="1"
     objecttolerance="10"
     gridtolerance="10"
     guidetolerance="10"
     inkscape:pageopacity="0"
     inkscape:pageshadow="2"
     inkscape:window-width="641"
     inkscape:window-height="480"
     id="namedview4"
     showgrid="false"
     inkscape:zoom="3.4327273"
     inkscape:cx="34.375"
     inkscape:cy="34.375"
     inkscape:window-x="827"
     inkscape:window-y="76"
     inkscape:window-maximized="0"
     inkscape:current-layer="svg2" />
  <g
     id="g3338"
     transform="translate(-1.0677965e-8,-0.58262712)">
    <path
       style="fill:#c8c8c8"
       d="M 49.296364,18.4375 45.625,14.375 49.6875,18.046364 C 53.474319,21.46859 54.324565,22.5 53.358864,22.5 c -0.215125,0 -2.04325,-1.828125 -4.0625,-4.0625 z"
       id="path3346"
       inkscape:connector-curvature="0" />
    <path
       style="fill:#919191"
       d="M 51.756235,17.1875 49.375,14.375 52.1875,16.756235 C 54.830556,18.994008 55.569051,20 54.568735,20 c -0.237196,0 -1.502821,-1.265625 -2.8125,-2.8125 z"
       id="path3344"
       inkscape:connector-curvature="0" />
    <path
       style="fill:#2b2b2b"
       d="M 49.296364,19.6875 45.625,15.625 l 4.0625,3.671364 c 2.234375,2.01925 4.0625,3.847375 4.0625,4.0625 0,0.965701 -1.03141,0.11545 -4.453636,-3.671364 z"
       id="path3342"
       inkscape:connector-curvature="0" />
    <path
       style="fill:#252525"
       d="M 1.9074532,66.30251 C 1.5004041,65.643891 4.6419214,58.937945 8.8886026,51.400409 l 7.7212384,-13.704613 4.79524,3.027103 C 24.042462,42.387804 26.53403,43.75 26.941899,43.75 c 0.407867,0 -0.927104,-2.953125 -2.966604,-6.5625 l -3.708181,-6.5625 4.580741,-7.5 c 7.651566,-12.527833 15.188067,-13.066263 25.693051,-1.835585 4.735275,5.062391 5.702313,6.912179 5.66934,10.844534 -0.02186,2.607578 -0.803227,5.747616 -1.736361,6.977862 -1.604801,2.115776 -2.042299,2.032984 -8.085245,-1.530066 -6.934064,-4.088471 -7.918096,-3.23061 -3.883968,3.385967 C 43.877102,43.218704 45,45.280465 45,45.549404 c 0,0.26894 -4.982603,3.261675 -11.072449,6.650525 l -11.072449,6.161545 -4.733337,-2.428349 c -4.527466,-2.322729 -4.692123,-2.327871 -3.785734,-0.118237 2.40544,5.864093 2.206579,6.485022 -2.913466,9.097075 -5.5410146,2.826814 -8.3717749,3.240505 -9.5151118,1.390546 z M 52.719907,17.071451 C 47.765485,11.99629 47.681679,11.765589 49.129404,7.1875 50.767754,2.0066001 52.387445,1.1745821 53.387814,5 c 0.746037,2.85285 2.620542,3.1260415 7.183652,1.0469492 4.272508,-1.9466848 4.930594,-0.9182518 2.75077,4.2988028 -1.773534,4.244662 -1.735555,4.406363 1.36693,5.819949 3.579975,1.631146 2.811466,2.868281 -2.980299,4.79765 -3.662762,1.220149 -4.244341,0.968345 -8.98896,-3.8919 z"
       id="path3340"
       inkscape:connector-curvature="0" />
  </g>
</svg>
