<?xml version="1.0" encoding="UTF-8" standalone="no"?>
<svg
   xmlns:dc="http://purl.org/dc/elements/1.1/"
   xmlns:cc="http://creativecommons.org/ns#"
   xmlns:rdf="http://www.w3.org/1999/02/22-rdf-syntax-ns#"
   xmlns:svg="http://www.w3.org/2000/svg"
   xmlns="http://www.w3.org/2000/svg"
   xmlns:sodipodi="http://sodipodi.sourceforge.net/DTD/sodipodi-0.dtd"
   xmlns:inkscape="http://www.inkscape.org/namespaces/inkscape"
   viewBox="0 0 68.75 61.25"
   height="61.25"
   width="68.75"
   version="1.1"
   id="svg2"
   inkscape:version="0.91 r13725"
   sodipodi:docname="services-icon-2.svg">
  <sodipodi:namedview
     pagecolor="#ffffff"
     bordercolor="#666666"
     borderopacity="1"
     objecttolerance="10"
     gridtolerance="10"
     guidetolerance="10"
     inkscape:pageopacity="0"
     inkscape:pageshadow="2"
     inkscape:window-width="944"
     inkscape:window-height="898"
     id="namedview9"
     showgrid="false"
     inkscape:zoom="3.8530612"
     inkscape:cx="35.413136"
     inkscape:cy="30.625"
     inkscape:window-x="694"
     inkscape:window-y="94"
     inkscape:window-maximized="0"
     inkscape:current-layer="svg2" />
  <metadata
     id="metadata8">
    <rdf:RDF>
      <cc:Work
         rdf:about="">
        <dc:format>image/svg+xml</dc:format>
        <dc:type
           rdf:resource="http://purl.org/dc/dcmitype/StillImage" />
        <dc:title />
      </cc:Work>
    </rdf:RDF>
  </metadata>
  <defs
     id="defs6" />
  <g
     transform="translate(1.5572031,0.51906784)"
     id="g3356">
    <path
       id="path3362"
       d="m 55.9375,60.345755 c 2.234375,-0.277283 5.890625,-0.277283 8.125,0 2.234375,0.277284 0.40625,0.504152 -4.0625,0.504152 -4.46875,0 -6.296875,-0.226868 -4.0625,-0.504152 z"
       style="fill:#c5c5c5" />
    <path
       id="path3360"
       d="m 35.33629,52.883761 c 1.216209,-0.316928 2.903709,-0.296086 3.75,0.04631 0.84629,0.342409 -0.14879,0.601715 -2.21129,0.57624 -2.0625,-0.02547 -2.75492,-0.305623 -1.53871,-0.622553 z"
       style="fill:#343434" />
    <path
       id="path3358"
       d="M 48.612145,56.793964 C 45.873659,54.055476 43.963729,53.488925 35.515555,52.909056 26.151661,52.266335 7.716346,47.898901 2.8600224,45.17277 -1.281023,42.848165 4.3035582,42.092514 14.46027,43.603136 26.448414,45.38615 27.411967,45.329234 24.375,43.017479 22.048894,41.246834 22.353207,41.130237 28.75,41.341208 32.53125,41.46592 37.713616,41.156454 40.26637,40.653515 46.291169,39.46652 51.34095,42.50473 60.04757,52.55491 L 66.497361,60 l -7.33959,0 c -6.2117,0 -7.832267,-0.492678 -10.545626,-3.206036 z M 17.5,39.932662 c 0,-2.567103 7.051577,-8.441337 11.661004,-9.714061 5.630466,-1.554646 11.981132,-0.01667 16.70324,4.045114 l 3.36836,2.897342 -9.375987,0.878602 C 34.699825,38.52289 28.962141,38.537144 27.106209,38.071335 24.875025,37.511342 22.676138,37.916096 20.615894,39.26602 18.753864,40.486069 17.5,40.754331 17.5,39.932662 Z m 5.556124,-13.768008 c -4.486859,-1.30401 -9.930116,-6.643743 -8.738314,-8.572119 1.445079,-2.338186 6.665112,-1.454853 10.299985,1.742964 1.928962,1.697023 2.837277,3.103273 2.018476,3.125 C 25.81747,22.482224 24.799899,21.9375 24.375,21.25 c -0.424899,-0.6875 -2.00497,-1.214345 -3.511271,-1.170767 -2.631463,0.07612 -2.640813,0.119312 -0.238729,1.102463 2.098054,0.858716 8.291637,6.547494 6.756235,6.205569 -0.27843,-0.062 -2.22473,-0.61218 -4.325111,-1.222611 z m 18.98317,-2.14374 c 1.465362,-1.180253 3.715362,-2.860273 5,-3.733378 2.122047,-1.44225 2.049847,-1.514484 -0.789294,-0.789649 -1.71875,0.438798 -4.191224,1.715657 -5.494386,2.837464 -2.256805,1.942735 -2.299989,1.907374 -0.908853,-0.744204 0.803294,-1.531118 2.535664,-3.359243 3.84971,-4.0625 C 46.641578,15.952475 53.75,15.840663 53.75,17.37051 c 0,2.138602 -8.851886,8.879266 -11.605995,8.837904 L 39.375,26.166826 42.039294,24.020914 Z M 30.096159,19.285307 C 26.376825,13.825171 24.776965,1.25 27.801639,1.25 c 5.783922,0 11.880186,10.227087 10.166437,17.055206 -0.86559,3.448785 -0.95278,3.369854 -2.867904,-2.596283 -1.086344,-3.384264 -2.654633,-6.3734801 -3.485087,-6.6427031 -1.044179,-0.3385103 -0.922863,0.6872781 0.393305,3.3255981 1.046771,2.098302 1.726232,5.508188 1.509915,7.577524 L 33.125,23.731772 30.096159,19.285307 Z"
       style="fill:#252525" />
  </g>
  <path
     style="fill:#000000;fill-opacity:1"
     d="m 56.385094,60.206706 c -2.459758,-0.259477 -3.826643,-0.910997 -5.9518,-2.836899 -0.977327,-0.885691 -2.35072,-1.901096 -3.051991,-2.256456 -1.475479,-0.747683 -4.525695,-1.389834 -6.601699,-1.389834 -0.79176,0 -2.153774,-0.115809 -3.026692,-0.257354 C 36.87999,53.324619 34.705906,53.028039 32.92161,52.807097 23.617287,51.654982 8.0813041,47.691198 4.5744978,45.574736 2.9774218,44.610853 2.8191981,44.281294 3.7791484,43.918125 c 1.9770793,-0.747967 5.7087179,-0.569681 14.9454166,0.714048 6.339752,0.881108 8.746833,0.996779 8.746833,0.420325 0,-0.201264 -0.612117,-0.893304 -1.36026,-1.537868 -0.748143,-0.644564 -1.286722,-1.245473 -1.196841,-1.335353 0.08988,-0.08988 3.067,-0.197879 6.615822,-0.239998 4.504704,-0.05346 7.420404,-0.218107 9.659229,-0.545439 2.609912,-0.381587 3.493804,-0.415492 4.748541,-0.182148 4.626226,0.860336 8.774846,4.180668 16.931776,13.551284 2.299359,2.641485 4.340941,5.006488 4.536847,5.255561 0.336281,0.427539 0.08957,0.450891 -4.412076,0.417622 -2.622548,-0.01938 -5.596752,-0.122636 -6.609342,-0.229453 z"
     id="path3337"
     inkscape:connector-curvature="0" />
  <path
     style="fill:#000000;fill-opacity:1"
     d="m 19.287792,40.033104 c 0.742152,-2.979961 8.066496,-8.494788 12.506179,-9.416463 0.918373,-0.190653 2.616478,-0.26133 4.364918,-0.181672 3.171642,0.144499 5.495805,0.803541 8.111546,2.300116 1.427095,0.8165 6.154222,4.610032 5.971839,4.792415 -0.05096,0.05096 -2.655073,0.333032 -5.786908,0.626814 -6.368927,0.597439 -13.672079,0.716758 -16.165964,0.264119 -2.139193,-0.388262 -3.713658,-0.0573 -6.188187,1.300803 -1.029774,0.565172 -2.124058,1.027586 -2.431744,1.027586 -0.480354,0 -0.534304,-0.100883 -0.381679,-0.713718 z"
     id="path3339"
     inkscape:connector-curvature="0" />
  <path
     style="fill:#000000;fill-opacity:1"
     d="M 32.883995,21.367618 C 30.7721,18.189885 30.323762,17.310909 29.46452,14.663665 28.41821,11.440086 27.932608,8.3052065 28.03226,5.4174968 c 0.07572,-2.1942955 0.165711,-2.6269109 0.646287,-3.1070389 0.521571,-0.5210855 0.646211,-0.5367073 1.893947,-0.2373799 4.742503,1.1377088 9.421652,8.817587 9.015199,14.796625 -0.15484,2.277725 -0.607062,3.966178 -1.024961,3.826879 -0.162184,-0.05406 -0.832402,-1.667164 -1.489374,-3.584673 -1.800737,-5.255822 -3.503653,-8.1998669 -4.416646,-7.6356067 -0.446107,0.2757094 -0.27779,1.0857237 0.67672,3.2566707 1.375011,3.127341 1.779575,5.451781 1.50208,8.630275 l -0.226931,2.599327 -1.724586,-2.594957 z"
     id="path3341"
     inkscape:connector-curvature="0" />
  <path
     style="fill:#000000;fill-opacity:1"
     d="m 25.872248,26.895475 c -3.451743,-1.061481 -5.268527,-2.123314 -7.634244,-4.46189 -2.851115,-2.818404 -3.09,-4.534937 -0.73909,-5.310807 2.52586,-0.833608 6.540678,0.767806 9.5183,3.79662 1.217316,1.238245 1.540332,1.920505 0.908369,1.918615 -0.454795,-0.0013 -2.011388,-0.980102 -2.011388,-1.264705 0,-0.738831 -5.138127,-1.525527 -5.555277,-0.850565 -0.07463,0.120762 0.459247,0.498224 1.186403,0.838805 0.727156,0.340582 1.892126,1.044535 2.588822,1.56434 2.004871,1.495834 5.242922,4.656997 4.745049,4.632376 -0.13194,-0.0065 -1.485065,-0.39478 -3.006944,-0.862789 z"
     id="path3343"
     inkscape:connector-curvature="0" />
  <path
     style="fill:#000000;fill-opacity:1"
     d="m 42.447477,26.535372 -0.985257,-0.09568 2.282926,-1.827283 c 1.255609,-1.005006 3.188051,-2.465556 4.294314,-3.245668 2.243126,-1.5818 2.521523,-2.055169 1.045873,-1.778335 -2.356362,0.442056 -4.931282,1.646086 -6.948328,3.249033 -0.544565,0.432766 -1.038704,0.738262 -1.098087,0.678879 -0.05938,-0.05938 0.146657,-0.607074 0.457866,-1.217094 0.851777,-1.66962 2.943266,-3.739316 4.421155,-4.375087 2.490763,-1.071497 7.718193,-1.326922 8.935751,-0.436622 0.412014,0.301272 0.415929,0.391773 0.04775,1.10375 -0.5949,1.15041 -3.683112,3.956007 -6.19208,5.625416 -3.09599,2.060001 -4.307235,2.508508 -6.261884,2.31869 z"
     id="path3345"
     inkscape:connector-curvature="0" />
  <path
     style="fill:#1a1a1a;fill-opacity:1"
     d="M 58.381886,60.220232 C 54.288579,60.018072 53.259701,59.613671 49.885527,56.88074 47.136907,54.654478 45.586221,54.099314 41.020973,53.707119 30.970735,52.843715 17.664657,50.159059 8.7614989,47.198395 5.6975735,46.179514 3.2309322,44.929649 3.2309322,44.396016 c 0,-1.06611 6.0967033,-0.972915 15.1640888,0.2318 6.067467,0.806139 8.827928,0.975075 9.086867,0.556104 0.07972,-0.128982 -0.438661,-0.793812 -1.151946,-1.477399 -0.917016,-0.878834 -1.202046,-1.303107 -0.973105,-1.448483 0.178077,-0.113079 2.309212,-0.214127 4.735854,-0.22455 2.426642,-0.01042 5.755164,-0.129977 7.396716,-0.265673 7.449458,-0.615795 8.352273,-0.614909 10.230263,0.01005 2.584207,0.859969 5.332054,2.840388 9.002543,6.488284 4.709632,4.680643 10.750875,11.698971 10.310534,11.978112 -0.38016,0.240988 -3.457988,0.232441 -8.650861,-0.02402 z"
     id="path3342"
     inkscape:connector-curvature="0" />
  <path
     style="fill:#1a1a1a;fill-opacity:1"
     d="m 19.322034,40.27225 c 0,-2.119434 6.520409,-7.536751 11.031936,-9.165605 3.008898,-1.086341 8.863009,-0.661707 12.357681,0.896376 1.876486,0.836622 7.563174,5.11994 7.235383,5.449821 -0.07137,0.07183 -2.231992,0.327452 -4.801377,0.568056 -4.707761,0.440847 -12.849789,0.619046 -17.648305,0.386259 l -2.595339,-0.125907 -2.611778,1.232786 c -1.436477,0.678033 -2.691973,1.232786 -2.789989,1.232786 -0.09802,0 -0.178212,-0.213557 -0.178212,-0.474572 z"
     id="path3344"
     inkscape:connector-curvature="0" />
  <path
     style="fill:#1a1a1a;fill-opacity:1"
     d="m 32.895624,21.267002 c -3.219856,-4.90398 -4.440356,-8.641635 -4.674486,-14.3151364 -0.171622,-4.1587875 0.05876,-4.8755942 1.567044,-4.8755942 3.026608,0 7.084477,4.2609725 8.906722,9.3525186 0.592622,1.655849 0.693075,2.351843 0.691643,4.792079 -0.0017,2.911869 -0.370893,4.614701 -0.888314,4.09728 -0.148255,-0.148255 -0.841992,-1.810187 -1.541638,-3.693183 -1.966524,-5.292615 -3.316018,-7.5534178 -4.286428,-7.1810367 -0.527656,0.2024808 -0.410918,0.7487067 0.82155,3.8441027 1.14901,2.885784 1.559806,5.639549 1.248349,8.368271 l -0.235299,2.061494 -1.609143,-2.450795 z"
     id="path3346"
     inkscape:connector-curvature="0" />
  <path
     style="fill:#1a1a1a;fill-opacity:1"
     d="m 25.188546,26.570573 c -3.797373,-1.344333 -6.754198,-3.440962 -8.438233,-5.983391 -0.973958,-1.470409 -1.011524,-2.217496 -0.145745,-2.898518 1.988108,-1.563846 6.341484,-0.366622 9.652376,2.654504 1.373678,1.253455 2.052009,2.160026 1.802731,2.409304 -0.178739,0.178739 -1.213611,-0.381817 -1.98976,-1.077789 -0.356859,-0.319996 -1.045831,-0.714492 -1.531048,-0.876657 -1.082047,-0.361635 -4.178698,-0.391044 -4.178698,-0.03969 0,0.140339 0.556474,0.537148 1.236608,0.881798 1.66445,0.843441 4.036689,2.664839 5.761942,4.424002 1.713492,1.747172 1.485116,1.800466 -2.170173,0.506433 z"
     id="path3348"
     inkscape:connector-curvature="0" />
  <path
     style="fill:#1a1a1a;fill-opacity:1"
     d="m 42.066671,26.012503 c 0.304969,-0.246628 2.202811,-1.709449 4.217426,-3.250715 2.014615,-1.541266 3.662937,-2.913551 3.662937,-3.049523 0,-0.855908 -4.237408,0.627403 -6.837282,2.393399 -0.83426,0.566682 -1.58384,0.963327 -1.665733,0.881434 -0.286438,-0.286437 0.598008,-1.588652 2.143363,-3.155785 2.141576,-2.171754 3.341966,-2.572309 7.708756,-2.572309 3.715777,0 4.115445,0.152416 3.494721,1.332732 -0.889561,1.691513 -5.696126,5.608666 -8.599745,7.00844 -1.392762,0.671422 -2.139796,0.870953 -3.244173,0.866511 -1.400654,-0.0056 -1.421578,-0.01643 -0.88027,-0.454184 z"
     id="path3350"
     inkscape:connector-curvature="0" />
  <path
     style="fill:#262626;fill-opacity:1"
     d="m 57.34375,60.182187 c -0.428231,-0.134527 -1.099775,-0.185804 -1.49232,-0.113947 -0.422516,0.07734 -0.713718,0.01505 -0.713718,-0.152667 0,-0.155824 -0.233581,-0.222233 -0.519068,-0.147577 -0.285487,0.07466 -0.519068,0.04405 -0.519068,-0.06801 0,-0.206138 -1.404024,-0.871867 -1.6899,-0.80128 -0.08523,0.02104 -0.378328,-0.22964 -0.651332,-0.557076 -0.273003,-0.327435 -0.500256,-0.496922 -0.505006,-0.376636 -0.0047,0.120285 -0.615682,-0.327087 -1.35763,-0.994163 -2.506765,-2.253796 -4.990255,-3.063567 -10.393203,-3.388824 -1.702613,-0.102497 -3.754846,-0.341617 -5.77634,-0.673041 -0.856462,-0.140417 -1.849179,-0.287451 -2.206038,-0.326742 -0.356859,-0.03929 -0.847625,-0.159295 -1.09059,-0.266673 -0.242968,-0.107378 -0.569256,-0.116434 -0.725088,-0.02012 -0.155832,0.09631 -0.451914,0.0352 -0.657958,-0.135805 -0.206044,-0.171002 -0.547559,-0.244552 -0.758921,-0.163445 -0.211362,0.08111 -0.459171,0.02631 -0.550686,-0.12176 -0.09152,-0.148076 -0.43847,-0.200942 -0.771008,-0.11748 -0.332539,0.08346 -0.683349,0.02435 -0.779579,-0.131348 -0.09623,-0.155703 -0.395247,-0.225491 -0.664482,-0.155084 -0.269235,0.07041 -0.559843,0.01422 -0.645796,-0.12485 -0.08595,-0.139076 -0.334452,-0.184491 -0.552222,-0.100926 -0.217769,0.08357 -0.527129,0.04905 -0.687466,-0.0767 -0.160337,-0.125749 -0.466707,-0.243455 -0.680823,-0.261569 -0.857197,-0.07252 -1.451132,-0.201163 -1.732995,-0.375365 -0.163039,-0.100763 -0.470345,-0.11647 -0.682904,-0.0349 -0.212558,0.08157 -0.460418,0.02865 -0.5508,-0.11759 -0.09038,-0.146241 -0.323962,-0.204636 -0.519068,-0.129767 -0.195105,0.07487 -0.433016,0.0095 -0.528689,-0.145335 -0.09567,-0.154804 -0.287789,-0.211107 -0.426922,-0.125118 -0.139133,0.08599 -0.417923,0.01944 -0.619533,-0.147876 -0.201609,-0.167322 -0.480399,-0.233866 -0.619532,-0.147877 -0.139133,0.08599 -0.331248,0.02969 -0.426922,-0.125117 -0.09567,-0.154804 -0.333584,-0.220204 -0.528689,-0.145336 -0.195106,0.07487 -0.424943,0.02253 -0.510749,-0.116307 -0.08581,-0.138837 -0.269849,-0.182077 -0.408982,-0.09609 -0.139133,0.08599 -0.423039,0.0152 -0.630901,-0.157312 -0.207863,-0.172511 -0.377932,-0.22666 -0.377932,-0.120332 0,0.106328 -0.17007,0.05218 -0.377932,-0.120332 -0.207863,-0.17251 -0.491768,-0.243301 -0.630902,-0.157312 -0.139133,0.08599 -0.327504,0.03574 -0.418603,-0.111657 -0.0911,-0.1474 -0.27947,-0.197646 -0.418603,-0.111657 -0.139133,0.08599 -0.423039,0.0152 -0.630901,-0.157312 -0.207863,-0.172511 -0.377932,-0.22666 -0.377932,-0.120332 0,0.106329 -0.175185,0.04793 -0.389301,-0.129767 -0.214115,-0.1777 -0.389301,-0.236095 -0.389301,-0.129767 0,0.106329 -0.175185,0.04793 -0.389301,-0.129767 -0.214115,-0.1777 -0.3893005,-0.236095 -0.3893005,-0.129766 0,0.106328 -0.155154,0.06456 -0.3447866,-0.09282 C 9.4443941,47.374266 9.0648257,47.210599 8.7905417,47.167943 8.5162575,47.125287 8.1458554,46.99928 7.9674258,46.887927 7.7889963,46.776575 7.6430085,46.765056 7.6430085,46.862331 c 0,0.09727 -0.1751854,0.03147 -0.3893009,-0.146229 -0.2141155,-0.1777 -0.3910893,-0.221198 -0.3932751,-0.09666 -0.00218,0.124536 -0.089778,0.09211 -0.1946504,-0.07205 C 6.5609102,46.383229 6.2415254,46.208044 5.9560381,46.158091 5.6705508,46.108138 5.2826403,45.921279 5.0940148,45.74285 4.9053893,45.56442 4.6023171,45.418432 4.4205211,45.418432 c -0.181796,0 -0.544423,-0.23634 -0.8058379,-0.5252 -0.6038119,-0.667204 -0.2864984,-1.015981 1.0686719,-1.174635 3.5780827,-0.418898 3.7382551,-0.423367 3.7382551,-0.104308 0,0.240331 0.4602776,0.283636 1.8110478,0.170392 1.131638,-0.09487 1.873276,-0.05114 1.976926,0.116566 0.09123,0.147618 0.464123,0.211383 0.828644,0.141701 0.36452,-0.06968 2.657438,0.149101 5.095372,0.486186 2.437934,0.337085 5.438042,0.690588 6.666907,0.785563 2.783296,0.215112 3.106585,-0.07038 1.63457,-1.443462 -0.557698,-0.520215 -1.034898,-1.056455 -1.060445,-1.191644 -0.0981,-0.519131 0.875582,-0.70655 3.455162,-0.665069 1.471544,0.02366 4.751891,-0.08787 7.28966,-0.247849 2.53777,-0.159979 5.118139,-0.278474 5.734155,-0.263321 0.616017,0.01515 1.058772,-0.07156 0.983904,-0.192707 -0.15726,-0.254447 2.534128,-0.176324 2.958372,0.08587 0.155648,0.0962 0.448849,0.111258 0.651557,0.03347 0.202709,-0.07779 0.442511,-0.02178 0.532894,0.124462 0.09038,0.146241 0.314293,0.208346 0.497583,0.138011 0.183288,-0.07034 0.564899,0.03437 0.848025,0.232678 0.283123,0.198307 0.588506,0.286822 0.678629,0.196699 0.09012,-0.09012 0.163859,-0.02071 0.163859,0.154247 0,0.174958 0.11679,0.245926 0.259534,0.157706 0.142744,-0.08822 0.259534,-0.02983 0.259534,0.129767 0,0.159592 0.11679,0.217987 0.259534,0.129766 0.142744,-0.08822 0.259534,-0.03672 0.259534,0.114451 0,0.151167 0.175185,0.27485 0.389301,0.27485 0.214115,0 0.3893,0.116791 0.3893,0.259534 0,0.142744 0.162692,0.259534 0.361534,0.259534 0.198844,0 0.435173,0.191902 0.525177,0.426448 0.09,0.234546 0.234793,0.355297 0.321755,0.268335 0.08696,-0.08696 0.382906,0.127664 0.657651,0.476946 0.274745,0.349282 0.580414,0.619207 0.679262,0.599832 0.271418,-0.0532 7.167852,6.874372 9.346197,9.388397 1.051318,1.213321 2.197949,2.522269 2.548073,2.908775 0.350122,0.386505 0.602609,0.736876 0.561079,0.778601 -0.04153,0.04173 0.183363,0.439419 0.499766,0.883763 0.3164,0.444343 0.500864,0.882307 0.409918,0.973252 -0.258841,0.25884 -8.681269,0.149628 -9.551831,-0.123857 z"
     id="path3363"
     inkscape:connector-curvature="0" />
  <path
     style="fill:#262626;fill-opacity:1"
     d="m 19.236938,40.559055 c -0.280693,-0.455329 0.58111,-1.753531 2.352632,-3.543958 1.03303,-1.044054 1.928822,-1.847693 1.99065,-1.785865 0.06183,0.06183 0.309707,-0.188691 0.550842,-0.55671 0.241135,-0.368018 0.543268,-0.60433 0.671406,-0.525136 0.128138,0.07919 0.302786,-0.03793 0.388107,-0.260272 0.08532,-0.222343 0.260506,-0.339133 0.389301,-0.259533 0.128794,0.0796 0.30398,-0.03719 0.389301,-0.259534 0.08532,-0.222344 0.259681,-0.339644 0.387467,-0.260667 0.127787,0.07898 0.232339,0.01991 0.232339,-0.131258 0,-0.151168 0.175185,-0.274851 0.389301,-0.274851 0.214115,0 0.389301,-0.123682 0.389301,-0.27485 0,-0.151168 0.11679,-0.202671 0.259534,-0.11445 0.142743,0.08822 0.259534,0.02983 0.259534,-0.129767 0,-0.159593 0.11679,-0.217988 0.259533,-0.129767 0.142744,0.08822 0.259534,0.0494 0.259534,-0.08627 0,-0.298539 1.876793,-1.076345 2.97251,-1.231909 1.688726,-0.239756 6.591128,-0.255934 6.446099,-0.02127 -0.0852,0.137851 0.200452,0.189977 0.666347,0.121598 0.448507,-0.06583 0.815468,-0.0095 0.815468,0.125169 0,0.13467 0.233581,0.183772 0.519068,0.109115 0.285487,-0.07466 0.519068,-0.01739 0.519068,0.127265 0,0.144652 0.163767,0.20016 0.363927,0.123351 0.20016,-0.07681 0.443473,-0.06011 0.540696,0.03712 0.09722,0.09722 0.254628,0.186554 0.34979,0.198515 0.357745,0.04497 1.497638,0.614607 2.233104,1.115954 0.419326,0.285844 0.845051,0.468641 0.946056,0.406216 0.101006,-0.06242 0.253456,0.06842 0.338775,0.290761 0.08532,0.222343 0.266884,0.335191 0.403474,0.250774 0.13659,-0.08442 0.376856,0.08664 0.533923,0.38012 0.157068,0.293483 0.375676,0.477922 0.485793,0.409865 0.110121,-0.06806 0.3794,0.07466 0.5984,0.317148 0.219002,0.242489 0.997241,0.904376 1.729422,1.47086 1.038195,0.803246 1.246282,1.077514 0.945298,1.245953 -0.475596,0.266157 -4.299299,0.704573 -7.336417,0.841175 -3.539752,0.15921 -16.72364,0.143804 -17.240198,-0.02015 -0.255243,-0.08101 -0.464077,-0.02263 -0.464077,0.129731 0,0.152363 -0.08759,0.253415 -0.194651,0.22456 -0.107057,-0.02886 -0.661811,0.188153 -1.232786,0.48224 -0.570974,0.294086 -1.351142,0.609846 -1.733705,0.701688 -0.382563,0.09184 -0.849724,0.312796 -1.038136,0.491011 -0.415744,0.393247 -1.165565,0.542549 -1.33603,0.266028 z"
     id="path3365"
     inkscape:connector-curvature="0" />
  <path
     style="fill:#262626;fill-opacity:1"
     d="m 33.243842,21.934607 c -0.519812,-0.782894 -0.945113,-1.54203 -0.945113,-1.68697 0,-0.14494 -0.11679,-0.263527 -0.259534,-0.263527 -0.142744,0 -0.259534,-0.175185 -0.259534,-0.3893 0,-0.214116 -0.123683,-0.389301 -0.274851,-0.389301 -0.151168,0 -0.20267,-0.116791 -0.11445,-0.259534 0.08822,-0.142744 0.03672,-0.259534 -0.11445,-0.259534 -0.151168,0 -0.247082,-0.08759 -0.213141,-0.194651 0.110188,-0.34757 -0.635838,-1.88162 -0.915054,-1.88162 -0.149216,0 -0.194456,-0.07685 -0.100532,-0.170771 0.09392,-0.09392 0.04069,-0.327505 -0.11829,-0.519068 -0.158983,-0.191563 -0.202064,-0.348297 -0.09574,-0.348297 0.106328,0 0.07415,-0.145988 -0.07151,-0.324417 -0.36133,-0.442627 -1.090267,-2.96914 -0.908954,-3.150453 0.08033,-0.08033 0.01061,-0.309265 -0.154935,-0.508738 -0.165547,-0.199473 -0.230236,-0.547073 -0.143752,-0.772445 0.08648,-0.225373 0.06738,-0.555161 -0.04244,-0.732864 -0.109826,-0.1777032 -0.181399,-0.913235 -0.159049,-1.6345155 0.03096,-0.9990483 -0.01809,-1.1877808 -0.20589,-0.7923513 -0.25901,0.5453552 -0.195338,-2.9045158 0.08084,-4.3798285 0.123087,-0.6575268 0.697325,-1.587008 0.697325,-1.1287138 0,0.096388 0.287841,0.065813 0.639647,-0.067943 0.407367,-0.1548806 0.696619,-0.1510106 0.796535,0.010657 0.08629,0.1396178 0.256857,0.1920665 0.379041,0.1165529 0.286119,-0.1768317 1.558718,0.3986554 1.558718,0.7048744 0,0.1282554 0.104552,0.1685747 0.232338,0.089599 0.127787,-0.078976 0.299722,0.032005 0.38208,0.2466242 0.08236,0.2146196 0.240582,0.3641077 0.351612,0.3321958 0.238494,-0.068547 2.256906,1.9016533 2.269492,2.2152831 0.0048,0.1185647 0.211219,0.3636929 0.458802,0.5447297 0.247583,0.1810369 0.376854,0.4024538 0.28727,0.4920374 -0.08958,0.089584 0.02835,0.2362615 0.262078,0.3259507 0.233726,0.089689 0.371271,0.2499366 0.305655,0.3561052 -0.06562,0.1061685 0.103208,0.4318693 0.375163,0.7237793 0.271956,0.2919099 0.423637,0.6015728 0.337071,0.6881396 -0.08657,0.086567 -0.01425,0.157394 0.160712,0.157394 0.174958,0 0.245926,0.1167903 0.157706,0.2595339 -0.08822,0.1427437 -0.02983,0.2595339 0.129767,0.2595339 0.159592,0 0.222974,0.1087203 0.14085,0.2416007 -0.08212,0.1328803 -0.03216,0.3140099 0.11104,0.4025099 0.143197,0.0885 0.450266,0.814171 0.682375,1.612601 0.460302,1.583381 0.581042,7.007193 0.179641,8.069727 l -0.224368,0.593917 -0.57282,-0.658801 c -0.315051,-0.36234 -0.500896,-0.6588 -0.41299,-0.6588 0.0879,0 0.02975,-0.156734 -0.129232,-0.348297 -0.158983,-0.191563 -0.212214,-0.425144 -0.11829,-0.519068 0.09392,-0.09392 0.01505,-0.170771 -0.175274,-0.170771 -0.190325,0 -0.269199,-0.07685 -0.175275,-0.170771 0.09392,-0.09392 0.07045,-0.298307 -0.05217,-0.454184 C 37.139344,17.38654 36.832533,16.616658 36.58016,15.831568 35.898247,13.710255 34.49127,10.842144 33.729148,10.0198 33.203336,9.4524391 32.980613,9.3599314 32.700383,9.5925023 32.296271,9.927885 32.431042,10.600079 33.293143,12.549 c 0.293481,0.663463 0.467474,1.206297 0.38665,1.206297 -0.08082,0 -0.0016,0.175185 0.176139,0.389301 0.1777,0.214115 0.236095,0.3893 0.129767,0.3893 -0.106328,0 -0.04793,0.175186 0.129767,0.389301 0.1777,0.214116 0.236095,0.389301 0.129767,0.389301 -0.106328,0 -0.06325,0.156734 0.09574,0.348297 0.158983,0.191563 0.217251,0.420107 0.129483,0.507875 -0.08777,0.08777 -0.07284,0.368997 0.03317,0.624955 0.268337,0.64788 0.455928,4.698503 0.264946,5.720939 -0.08666,0.463917 -0.252519,0.843485 -0.368584,0.843485 -0.116066,0 -0.63633,-0.64055 -1.156143,-1.423444 z"
     id="path3367"
     inkscape:connector-curvature="0" />
  <path
     style="fill:#262626;fill-opacity:1"
     d="m 26.653867,27.123663 c -0.463917,-0.201638 -0.843486,-0.299556 -0.843486,-0.217597 0,0.08196 -0.156733,0.01894 -0.348296,-0.140044 -0.191564,-0.158983 -0.425144,-0.212214 -0.519068,-0.11829 -0.09392,0.09392 -0.170771,0.02202 -0.170771,-0.159786 0,-0.1872 -0.168833,-0.265769 -0.389301,-0.181168 -0.214116,0.08216 -0.389301,0.02937 -0.389301,-0.117316 0,-0.146688 -0.11679,-0.194526 -0.259534,-0.106305 -0.142743,0.08822 -0.259534,0.05446 -0.259534,-0.07503 0,-0.268972 -1.836598,-1.151923 -2.15941,-1.038143 -0.117099,0.04127 -0.327285,-0.129342 -0.467081,-0.379143 -0.139796,-0.249801 -0.408417,-0.454184 -0.596935,-0.454184 -0.464492,0 -3.813789,-3.375289 -3.635521,-3.663734 0.07794,-0.126101 0.01112,-0.229275 -0.148468,-0.229275 -0.159592,0 -0.217987,-0.11679 -0.129767,-0.259534 0.08822,-0.142743 0.05213,-0.259534 -0.08019,-0.259534 -0.28939,0 -0.26236,-1.551651 0.03511,-2.015621 0.115893,-0.180758 0.319434,-0.261458 0.452314,-0.179333 0.132881,0.08212 0.241601,0.01874 0.241601,-0.140851 0,-0.159592 0.10872,-0.222975 0.2416,-0.14085 0.132881,0.08212 0.300015,0.0548 0.371409,-0.06072 0.184577,-0.298652 2.162948,-0.176867 3.539533,0.217887 0.642347,0.184201 1.255495,0.314279 1.362553,0.289063 0.107058,-0.02522 0.194651,0.07783 0.194651,0.229002 0,0.151168 0.11679,0.202671 0.259533,0.11445 0.142744,-0.08822 0.259534,-0.02982 0.259534,0.129767 0,0.159592 0.116791,0.217987 0.259534,0.129767 0.142744,-0.08822 0.259534,-0.02982 0.259534,0.129767 0,0.159592 0.117615,0.217478 0.261367,0.128634 0.143752,-0.08884 0.331175,0.02038 0.416496,0.242726 0.08532,0.222343 0.253822,0.343265 0.374446,0.268715 0.120625,-0.07455 0.35143,0.111309 0.5129,0.41302 0.161471,0.30171 0.364357,0.477791 0.450857,0.391291 0.218671,-0.218671 2.146501,1.703368 1.979511,1.973563 -0.07451,0.120556 0.04712,0.289257 0.270283,0.374893 0.223163,0.08563 0.40575,0.249712 0.40575,0.364614 0,0.315304 -1.393193,0.09782 -1.504064,-0.234796 -0.05302,-0.159052 -0.261848,-0.289185 -0.464068,-0.289185 -0.20222,0 -0.367673,-0.113792 -0.367673,-0.25287 0,-0.739769 -4.139572,-1.663623 -5.35848,-1.195884 -0.37726,0.144768 -0.210929,0.320409 0.855908,0.903813 0.728292,0.398269 1.651807,1.02793 2.052255,1.399247 0.400449,0.371317 0.810839,0.623979 0.911979,0.561471 0.10114,-0.06251 0.374544,0.177322 0.607564,0.532955 0.23302,0.355634 0.572463,0.646607 0.754318,0.646607 0.427082,0 2.333286,1.948374 2.408663,2.461948 0.07141,0.486574 -0.537466,0.488788 -1.648255,0.006 z"
     id="path3369"
     inkscape:connector-curvature="0" />
  <path
     style="fill:#262626;fill-opacity:1"
     d="m 42.485434,26.54883 c -0.800621,-0.154206 -0.733008,-0.45502 0.259534,-1.154691 1.187092,-0.836814 1.470218,-1.065608 1.957563,-1.581904 0.235795,-0.249801 0.572143,-0.454184 0.747442,-0.454184 0.1753,0 0.412122,-0.156453 0.526273,-0.347674 0.11415,-0.191222 1.054276,-0.959728 2.089167,-1.707794 1.034892,-0.748065 1.881621,-1.466121 1.881621,-1.595679 0,-0.259156 -1.130319,-0.185037 -1.946504,0.127638 -0.285488,0.109369 -1.116743,0.428627 -1.847234,0.709464 -0.730491,0.280837 -1.94638,0.917755 -2.701976,1.415374 -0.755596,0.497619 -1.615926,0.869903 -1.911846,0.827299 -0.524442,-0.07551 -0.52215,-0.09222 0.09069,-0.661414 0.3458,-0.321173 0.566996,-0.583951 0.491547,-0.583951 -0.07545,0 0.574074,-0.723266 1.443382,-1.607257 0.869309,-0.883991 1.668154,-1.584732 1.775212,-1.557203 0.107058,0.02753 0.194651,-0.07363 0.194651,-0.224798 0,-0.151168 0.11679,-0.20267 0.259534,-0.11445 0.142743,0.08822 0.259533,0.04359 0.259533,-0.09918 0,-0.456088 2.005179,-0.681708 5.330001,-0.599725 4.797614,0.118298 4.814439,0.47602 0.222665,4.734074 -0.300509,0.278669 -0.675969,0.506671 -0.834354,0.506671 -0.158385,0 -0.414732,0.236852 -0.56966,0.526337 -0.154927,0.289486 -0.393442,0.457269 -0.530032,0.372851 -0.13659,-0.08442 -0.31841,0.0291 -0.404046,0.252265 -0.08564,0.223163 -0.318391,0.405751 -0.517235,0.405751 -0.198843,0 -0.361534,0.11679 -0.361534,0.259534 0,0.142743 -0.175185,0.259534 -0.3893,0.259534 -0.214116,0 -0.389301,0.123682 -0.389301,0.27485 0,0.151168 -0.11679,0.202671 -0.259534,0.11445 -0.142744,-0.08822 -0.259534,-0.03672 -0.259534,0.11445 0,0.151168 -0.08759,0.258142 -0.19465,0.23772 -0.346312,-0.06606 -1.881621,0.600428 -1.881621,0.816825 0,0.115416 -0.2204,0.152211 -0.489777,0.08177 -0.269378,-0.07044 -0.568246,-0.0011 -0.664152,0.154065 -0.177342,0.286945 -0.33994,0.298637 -1.376527,0.09898 z"
     id="path3371"
     inkscape:connector-curvature="0" />
</svg>
